<svg id="Layer_1" data-name="Layer 1" xmlns="http://www.w3.org/2000/svg" xmlns:xlink="http://www.w3.org/1999/xlink" viewBox="0 0 183 249"><defs><style>.cls-1{fill:url(#linear-gradient);}.cls-2{fill:url(#linear-gradient-2);}.cls-3{fill:url(#linear-gradient-3);}.cls-4{fill:url(#linear-gradient-4);}.cls-5{fill:url(#linear-gradient-5);}</style><linearGradient id="linear-gradient" x1="-93.35698" y1="109.86417" x2="449.11604" y2="432.60128" gradientUnits="userSpaceOnUse"><stop offset="0" stop-color="#2e3190"/><stop offset="0.55061" stop-color="#50a792"/><stop offset="1" stop-color="#39b34a"/></linearGradient><linearGradient id="linear-gradient-2" x1="-51.41781" y1="39.37067" x2="491.05521" y2="362.10778" xlink:href="#linear-gradient"/><linearGradient id="linear-gradient-3" x1="-43.41743" y1="25.92323" x2="499.05559" y2="348.66034" xlink:href="#linear-gradient"/><linearGradient id="linear-gradient-4" x1="-33.58618" y1="9.39837" x2="508.88683" y2="332.13548" xlink:href="#linear-gradient"/><linearGradient id="linear-gradient-5" x1="-23.67278" y1="-7.26458" x2="518.80023" y2="315.47253" xlink:href="#linear-gradient"/></defs><path class="cls-1" d="M71.88011,215.6352a7.74167,7.74167,0,0,0-4.9868,1.36,27.49884,27.49884,0,0,1-3.77784,2.569,16.11106,16.11106,0,0,1-4.53339,1.3599,40.16477,40.16477,0,0,1-6.49789.45343A21.84007,21.84007,0,0,1,40.07072,218.053a23.05624,23.05624,0,0,1-8.16016-8.98967,27.60125,27.60125,0,0,1-2.94671-12.9217,28.53694,28.53694,0,0,1,2.87124-13.06976,22.13622,22.13622,0,0,1,8.23563-8.98967A24.356,24.356,0,0,1,53.142,170.75781a30.562,30.562,0,0,1,4.609.52726,13.85738,13.85738,0,0,1,4.609,1.43713,16.08865,16.08865,0,0,1,2.87112,1.96451,10.49285,10.49285,0,0,0,2.79564,1.73623,10.20726,10.20726,0,0,0,4.00449.68158,6.00567,6.00567,0,0,0,5.28743-2.64609,9.82639,9.82639,0,0,0,1.81332-5.66513,10.19674,10.19674,0,0,0-3.55119-7.784,24.43253,24.43253,0,0,0-9.97186-5.06065,55.63679,55.63679,0,0,0-15.03577-1.81345,39.511,39.511,0,0,0-20.62693,5.363,37.54459,37.54459,0,0,0-14.05195,14.80911,45.51762,45.51762,0,0,0-5.0624,21.83428A46.97848,46.97848,0,0,0,15.592,217.44853,36.86751,36.86751,0,0,0,29.115,232.48593Q37.878,238.00325,49.81756,238a56.12692,56.12692,0,0,0,14.88458-1.88729,34.03238,34.03238,0,0,0,11.10524-4.98681q4.22952-3.0962,4.23114-6.87723a9.13465,9.13465,0,0,0-2.11557-6.11843A7.49068,7.49068,0,0,0,71.88011,215.6352Z"/><path class="cls-2" d="M158.61436,66.86972a8.67763,8.67763,0,0,0-6.49789,2.64609,9.0542,9.0542,0,0,0-2.56737,6.57174v87.48728a36.45,36.45,0,0,0-2.94671-2.48827,35.61944,35.61944,0,0,0-9.4446-4.98681,34.94575,34.94575,0,0,0-11.93788-1.96451,33.31655,33.31655,0,0,0-18.43589,5.363,38.14758,38.14758,0,0,0-13.22081,14.80911,50.66218,50.66218,0,0,0,0,43.52062,37.70248,37.70248,0,0,0,13.372,14.80912A34.5545,34.5545,0,0,0,125.82427,238a29.47844,29.47844,0,0,0,10.65357-1.88729,35.29645,35.29645,0,0,0,8.53787-4.6106,31.82109,31.82109,0,0,0,4.54653-4.077,9.02651,9.02651,0,0,0,2.55423,6.4208,9.30922,9.30922,0,0,0,12.99578,0,9.06434,9.06434,0,0,0,2.56887-6.575V76.08755a9.0004,9.0004,0,0,0-2.56887-6.649A8.8177,8.8177,0,0,0,158.61436,66.86972ZM139.72679,218.053a20.46934,20.46934,0,0,1-11.63576,3.32454,20.20406,20.20406,0,0,1-11.48458-3.32454,22.42931,22.42931,0,0,1-7.78233-9.06677,28.92051,28.92051,0,0,1-2.794-12.8446,29.28232,29.28232,0,0,1,2.794-12.99254,22.43058,22.43058,0,0,1,7.78233-9.06689,20.22894,20.22894,0,0,1,11.48458-3.32441,20.4943,20.4943,0,0,1,11.63576,3.32441,22.45618,22.45618,0,0,1,7.78233,9.06689,29.32912,29.32912,0,0,1,2.79552,12.99254,28.96728,28.96728,0,0,1-2.79552,12.8446A22.45491,22.45491,0,0,1,139.72679,218.053Z"/><path class="cls-3" d="M42.42254,123.62959a84.04753,84.04753,0,0,1-8.83974-15.51185,80.02506,80.02506,0,0,1-4.05693-11.46192c-.73088-2.70829-1.24451-5.46564-1.70707-8.05779a63.19118,63.19118,0,0,1-.88007-9.44748A68.40731,68.40731,0,0,1,28.1482,64.02017c.50161-2.5481,1.02124-5.1843,1.68905-7.7364A66.32172,66.32172,0,0,1,33.59281,45.765c1.36967-3.02868,2.70329-5.69492,4.076-8.1499A85.68142,85.68142,0,0,1,49.07062,22.12127a6.83912,6.83912,0,0,0,1.53586-7.03956,8.179,8.179,0,0,0-5.86512-5.13523,9.39233,9.39233,0,0,0-8.38419,1.99242,34.31367,34.31367,0,0,0-5.23736,5.90717l-.837,1.10034a98.495,98.495,0,0,0-8.98491,13.59451c-1.15641,2.15963-2.27677,4.28321-3.272,6.52493C16.72733,41.99141,15.646,44.938,14.46658,48.212a80.65884,80.65884,0,0,0-2.28077,7.97769l-.22427.8981c-.23229.92712-.37246,1.85325-.52264,2.84045-.10613.69784-.21226,1.39569-.36644,2.08253a47.87242,47.87242,0,0,0-.81,5.61181c-.10513,1.01424-.21025,2.02847-.35343,3.0397a25.28884,25.28884,0,0,0-.10813,4.45841c.02.5747.04005,1.1494.04005,1.676a62.67017,62.67017,0,0,0,.75692,11.8524c.08811.56969.1692,1.14239.2503,1.71608l.04205.29937c.13216.93113.26533,1.86326.42252,2.78839a78.71045,78.71045,0,0,0,3.72753,13.89187c1.03926,2.83044,1.99342,5.37954,3.15082,7.8976a94.12248,94.12248,0,0,0,7.384,13.11593,102.01864,102.01864,0,0,0,10.73605,13.59752,9.82157,9.82157,0,0,0,6.6671,2.58114,6.84144,6.84144,0,0,0,1.9814-.27033c3.10277-.94415,5.32047-2.89852,6.0844-5.36352a7.1764,7.1764,0,0,0-1.86026-7.03154A101.45418,101.45418,0,0,1,42.42254,123.62959Z"/><path class="cls-4" d="M85.29963,113.96985l-.5956.48547.56857-.51851c-.56168-.69284-1.12437-1.38468-1.645-2.09955a61.07127,61.07127,0,0,1-4.78081-7.80148,65.56,65.56,0,0,1-3.05971-6.598,58.03391,58.03391,0,0,1-1.97941-6.583l-.22728-.89309a30.57444,30.57444,0,0,1-1.0763-5.62984c-.05006-.87406-.11715-1.74612-.18523-2.63119a42.46166,42.46166,0,0,1-.0841-8.46429L72.469,71.26A60.368,60.368,0,0,1,73.62845,63.904a60.24881,60.24881,0,0,1,5.04013-13.63457A65.733,65.733,0,0,1,86.398,38.57125c1.54888-1.87728,2.98162-4.20311,1.86827-7.21977a7.73928,7.73928,0,0,0-5.90618-5.22134c-3.56833-.76894-6.565-.013-8.66152,2.18165A65.30194,65.30194,0,0,0,64.98,40.24629a74.37586,74.37586,0,0,0-6.34671,13.94293A69.99224,69.99224,0,0,0,55.4784,67.78174l-.12615.9101a31.67272,31.67272,0,0,0-.40649,8.38119c0,.42852-.019.87306-.04005,1.35264a17.70814,17.70814,0,0,0,.10713,3.66545c.1702,1.04727.29536,2.09755.43252,3.23593.19324,1.615.39348,3.286.74991,4.949.12616.58771.2413,1.17743.36144,1.79117A40.67935,40.67935,0,0,0,57.643,96.65982a87.75757,87.75757,0,0,0,4.24616,11.06745,79.8304,79.8304,0,0,0,11.13553,17.17686,9.0346,9.0346,0,0,0,7.12365,3.47823h.004a11.13866,11.13866,0,0,0,2.28077-.2463,8.13745,8.13745,0,0,0,5.787-4.46743,6.62148,6.62148,0,0,0-.48459-6.48287A38.93407,38.93407,0,0,0,85.29963,113.96985Z"/><path class="cls-5" d="M119.51119,89.17873a36.13082,36.13082,0,0,1-2.07351-9.43045,39.57222,39.57222,0,0,1,.53865-10.2835l.06508-.32439a25.87175,25.87175,0,0,1,1.18143-4.56355,45.81773,45.81773,0,0,1,5.19732-9.859c1.79818-2.52707,2.13559-4.971,1.00422-7.26183a8.33938,8.33938,0,0,0-7.19374-4.76879,8.55194,8.55194,0,0,0-7.7404,3.09977,51.16458,51.16458,0,0,0-4.84189,7.87356,49.98278,49.98278,0,0,0-4.65766,13.12495,41.77448,41.77448,0,0,0-.93113,9.74083,50.63068,50.63068,0,0,0,1.37968,11.8494,51.42809,51.42809,0,0,0,3.324,9.43045,57.96462,57.96462,0,0,0,4.63863,8.28407,9.77382,9.77382,0,0,0,6.81829,4.71473,9.05607,9.05607,0,0,0,1.45076.11514,9.28455,9.28455,0,0,0,5.48266-1.79218,7.08829,7.08829,0,0,0,2.99464-5.12323,8.71928,8.71928,0,0,0-1.94436-5.8461A34.60206,34.60206,0,0,1,119.51119,89.17873Z"/></svg>