<svg xmlns="http://www.w3.org/2000/svg" role="img" xmlns:xlink="http://www.w3.org/1999/xlink" viewBox="-3.23 44.77 362.70 271.95"><defs><linearGradient id="a" x1="359.765" x2="104.082" y1="134.295" y2="124.577" gradientTransform="matrix(1 0 0 -1 0 439.068)" gradientUnits="userSpaceOnUse"><stop offset="0" stop-color="#ed1c24"/><stop offset="1" stop-color="#f7941d"/></linearGradient><linearGradient id="b" x1="355.202" x2="99.519" y1="254.467" y2="244.749" xlink:href="#a"/><linearGradient id="c" x1="183.903" x2="10.612" y1="227.598" y2="221.023" xlink:href="#a"/><linearGradient id="d" x1="367.119" x2="157.995" y1="265.311" y2="257.091" xlink:href="#a"/></defs><path fill="#c49a6c" d="M231.52 309.278c2.483-.332 4.895-.77 7.255-1.329s4.649-1.206 6.991-1.957c13.494-4.58 25.187-12.952 36.374-24.593l-.14-.175c-14.944 15.486-30.693 25.344-50.48 28.054z"/><path fill="url(#a)" d="M224.232 309.96h.332c1.084 0 2.15-.14 3.216-.228a93.844 93.844 0 0 1-3.233.227z"/><path fill="url(#b)" d="M284.692 187.187l-.122.192.122-.192z"/><path fill="url(#c)" d="M146.145 231.847a150.844 150.844 0 0 1-12.97 15.862c-7.582 7.889-15.507 13.563-24.652 16.667a47.832 47.832 0 0 1-4.738 1.326 56.959 56.959 0 0 1-4.916.9 38.32 38.32 0 0 1-1.682.214l-.912.083c-.723.059-1.445.118-2.18.154h-3.068a42.325 42.325 0 0 1-9.192-1.043 49.977 49.977 0 0 1-6.764-2.002 43.097 43.097 0 0 1-4.525-1.954c-1.493-.77-2.961-1.516-4.407-2.37a59.5 59.5 0 0 1-17.105-15.399 59.714 59.714 0 0 1-2.914-4.311 53.09 53.09 0 0 1-1.291-2.263 51.985 51.985 0 0 1-2.263-4.738 46.72 46.72 0 0 1 0-36.426 51.986 51.986 0 0 1 2.263-4.738 54.14 54.14 0 0 1 1.291-2.263 59.742 59.742 0 0 1 2.914-4.311 59.714 59.714 0 0 1 17.105-15.4 60.828 60.828 0 0 1 4.407-2.369q2.217-1 4.525-1.777a49.976 49.976 0 0 1 6.906-2.073 42.325 42.325 0 0 1 9.192-1.042h3.128c.722 0 1.445.094 2.155.154l1.043.106 1.019.119c1.8.237 3.553.557 5.271.96.853.2 1.694.426 2.523.663a51.186 51.186 0 0 1 11.846 5.176 59.645 59.645 0 0 1 4.395 2.89 74.485 74.485 0 0 1 8.386 7.108q2.038 1.99 4.063 4.193l.083-.13a159.395 159.395 0 0 1 11.064 13.942c5.437-8.576 13.658-21.464 16.584-25.74 1.185-1.718 2.37-3.46 3.66-5.212-13.54-16.513-29.827-30.23-51.587-36.082h-.154a89.397 89.397 0 0 0-3.187-.794l-.45-.107a92.565 92.565 0 0 0-3.151-.627l-.628-.119a80.578 80.578 0 0 0-3.743-.569h-.142a58.29 58.29 0 0 0-2.073-.236h-.391l-1.872-.166h-.568l-1.754-.119h-.675l-1.777-.07h-3.115c-46.447-.25-87.125 40.476-87.125 86.911s40.725 87.173 87.172 87.173h3.14l1.729-.071h.734l1.67-.095h.676l1.706-.154h.568l1.813-.213.414-.06 1.967-.272h.213a125.91 125.91 0 0 0 3.553-.628l.652-.142c.96-.201 1.907-.415 2.855-.64l.58-.142a86.66 86.66 0 0 0 3.009-.817l.237-.071c20.73-6.077 36.425-19.392 49.55-35.277-2.037-3.068-3.4-5.366-4.039-6.48z"/><path fill="url(#d)" d="M318.05 51.733v94.66a85.514 85.514 0 0 0-52.595-18.729h-3.115l-1.777.072-.7.047-1.752.118h-.569l-1.871.166h-.391c-.7.071-1.386.142-2.073.237h-.154c-1.256.154-2.5.355-3.732.569l-.628.118c-1.066.19-2.108.403-3.15.628l-.45.107c-30.35 6.858-50.333 28.808-66.822 52.82-.7 1.018-1.35 2.049-2.038 3.068-2.25 3.423-5.46 8.422-8.635 13.397-4.17 6.527-8.292 13.03-9.939 15.66l20.624 32.137s21.997 40.465 61.68 51.482l.237.07c.995.297 2.002.558 3.009.818l.58.142c.936.237 1.896.439 2.855.64l.652.142c1.184.225 2.369.439 3.553.628h.214l1.966.273.415.059 1.812.213h.569l1.705.154h.676l1.67.095h.734l1.73.07h3.139c54.703 0 86.355-30.964 87.149-85.063V51.733zm-52.595 215.403h-3.068c-.734 0-1.457-.095-2.18-.154l-.912-.083c-.568-.06-1.125-.13-1.682-.213a49.077 49.077 0 0 1-9.571-2.275 49.612 49.612 0 0 1-6.634-2.83 55.792 55.792 0 0 1-6.254-3.768 63.068 63.068 0 0 1-3.009-2.215 82.399 82.399 0 0 1-8.683-7.925l-.095.119c-1.255-1.303-2.487-2.69-3.731-4.11-.154-.167-.296-.356-.45-.534-.628-.722-1.256-1.445-1.884-2.215s-1.125-1.398-1.682-2.097-.888-1.101-1.338-1.682a184.467 184.467 0 0 1-6.053-8.292c-.7-.995-1.398-2.025-2.109-3.056-.379-.569-.77-1.184-1.185-1.73-.675-1.018-1.362-2.013-2.049-3.056l-.355-.545c-1.185-1.812-2.37-3.684-3.649-5.603q2.95-4.608 5.817-8.86c1.907-2.831 3.79-5.556 5.662-8.138s3.72-5.046 5.591-7.38 3.72-4.525 5.603-6.586q2.026-2.203 4.063-4.194c1.374-1.338 2.748-2.594 4.158-3.778s2.807-2.287 4.252-3.329a57.594 57.594 0 0 1 7.748-4.62c.331-.166.663-.367 1.006-.533l.226-.118c1.41-.652 2.843-1.185 4.3-1.73l.485-.201c.273-.083.557-.142.83-.237a44.943 44.943 0 0 1 3.34-.948l1.374-.343a60.798 60.798 0 0 1 4.738-.841l1.019-.119 1.042-.106c.711 0 1.434-.119 2.156-.154h3.128a42.431 42.431 0 0 1 4.572.26 48.011 48.011 0 0 1 6.93 1.35c1.54.427 3.08.925 4.596 1.505a48.724 48.724 0 0 1 4.525 1.955c1.493.722 2.961 1.516 4.407 2.369s2.866 1.8 4.24 2.784 2.725 2.049 4.028 3.174a58.459 58.459 0 0 1 8.837 9.477 59.73 59.73 0 0 1 2.914 4.312 51.067 51.067 0 0 1 5.318 11.916 47.38 47.38 0 0 1 1.185 5.165 45.567 45.567 0 0 1 .71 8.09c.072 35.964-16.062 52.122-52.227 52.122z"/></svg>