<svg xmlns="http://www.w3.org/2000/svg" role="img" viewBox="59.65 -6.85 375.70 512.20"><defs><style>.cls-1{fill:#d33833}.cls-1,.cls-10,.cls-11,.cls-14,.cls-15,.cls-16,.cls-17,.cls-4,.cls-5,.cls-7,.cls-8{fill-rule:evenodd}.cls-14{fill:#ef3d3a}.cls-15{fill:#231f20}.cls-4{fill:#f0d6b7}.cls-5{fill:#335061}.cls-7{fill:#dcd9d8}.cls-8,.cls-9{fill:#f7e4cd}.cls-10{fill:#49728b}.cls-11,.cls-12{fill:#fff}.cls-13{fill:none;stroke:#d33833;stroke-width:2px}.cls-16{fill:#81b0c4}.cls-17{fill:#1d1919}</style></defs><g id="g10"><g id="g3393"><path id="path22" d="M420.406 240.606c0 97.554-77.317 176.637-172.692 176.637-95.373 0-172.69-79.083-172.69-176.637 0-97.556 77.317-176.641 172.69-176.641 95.375 0 172.692 79.085 172.692 176.641" class="cls-1"/><path id="path24" fill="#ef3d3a" d="M82.061 284.353S69.56 100.15 239.291 94.886l-11.84-19.736-92.102 30.92-26.316 30.262-23.025 44.079-13.158 51.314 3.947 34.209"/><path id="path26" fill="#231f20" d="M129.436 120.107a172.765 172.765 0 0 0-49.049 121.158 172.748 172.748 0 0 0 49.049 121.149c30.313 30.996 72.09 50.122 118.276 50.122 46.187 0 87.966-19.126 118.277-50.122a172.758 172.758 0 0 0 49.05-121.149 172.775 172.775 0 0 0-49.05-121.158c-30.31-30.99-72.09-50.116-118.277-50.12-46.186.004-87.963 19.13-118.276 50.12zm-7.67 249.805a183.502 183.502 0 0 1-52.108-128.647 183.506 183.506 0 0 1 52.108-128.652c32.194-32.94 76.757-53.357 125.946-53.351 49.189-.006 93.757 20.411 125.945 53.35a183.485 183.485 0 0 1 52.11 128.653 183.474 183.474 0 0 1-52.11 128.647 175.62 175.62 0 0 1-125.945 53.352c-49.189 0-93.752-20.414-125.946-53.352"/><path id="path28" d="M320.409 241.585l-26.317 3.947-35.525 3.947-23.027.658-22.367-.658-17.105-5.263-15.132-16.446-11.841-33.552-2.632-7.237-15.789-5.262-9.21-15.132-6.578-21.71 7.237-19.078 17.104-5.921 13.815 6.58 6.58 14.472 7.894-1.316 2.63-3.288-2.63-15.132-.659-19.079 3.947-26.314-.154-15.031 11.996-19.178 21.052-15.132 36.842-15.789 40.788 5.921 35.525 25.657L353.3 68.564l10.525 19.079 2.631 47.366-7.894 40.79-14.473 36.182-13.815 19.079" class="cls-4"/><path id="path30" d="M298.04 355.396l-94.078 3.947v15.789l7.895 55.261-3.948 4.607-65.786-22.37-4.606-7.894-6.579-74.338-15.129-44.736-3.29-10.525 52.628-36.183 16.449-6.58 14.472 17.763 12.499 11.184 14.475 4.605 6.577 1.973 7.895 34.209 5.92 7.237 15.133-5.263-10.528 20.395 57.236 26.971-7.235 3.948" class="cls-5"/><path id="path32" fill="#6d6b6d" fill-rule="evenodd" d="M142.123 125.799l17.104-5.921 13.815 6.58 6.58 14.472 7.894-1.316 1.974-7.895-3.947-15.13 3.947-36.184-3.29-19.736 11.841-13.815 25.657-20.394-7.236-9.868-36.183 17.763-15.132 11.842-8.552 18.42-13.157 17.762-3.948 21.053 2.633 22.367"/><path id="path34" d="M169.095 63.96s9.868-24.342 49.34-36.183 1.974-8.554 1.974-8.554l-42.76 16.448L161.2 52.117l-7.235 13.159 15.13-1.317" class="cls-7"/><path id="path36" d="M149.358 121.194s-13.815-46.052 38.815-52.63l-1.973-7.895-36.182 8.554-10.528 34.209 2.633 22.367 7.235-4.605" class="cls-7"/><path id="path38" d="M170.41 182.376l8.615-8.346a5.547 5.547 0 0 1 4.544 5.056c.657 4.607 2.63 46.053 30.919 68.422 2.58 2.04-21.05-3.292-21.05-3.292l-21.054-32.893" class="cls-8"/><path id="path40" d="M291.463 169.877s1.534-19.941 6.904-18.408a7.392 7.392 0 0 1 5.37 6.904s-13.041 8.437-12.274 11.504" class="cls-8"/><path id="path42" d="M346.064 96.853s-10.843 2.29-11.842 11.842c-.999 9.554 11.842 1.974 13.815 1.317" class="cls-9"/><path id="path44" d="M266.461 97.513s-14.474 1.973-14.474 11.182c0 9.211 16.448 8.554 21.053 4.607" class="cls-9"/><path id="path46" d="M176.99 140.273s-25.001-15.132-27.632-.657c-2.63 14.472-8.553 25 3.948 40.13l-8.552-2.631-7.895-20.394-2.63-19.736 15.13-15.79 17.104 1.316 9.869 7.894.657 9.868" class="cls-8"/><path id="path48" d="M188.83 98.827s11.185-57.892 67.763-69.077c46.58-9.207 71.049 1.974 80.26 12.5 0 0-41.446-49.34-80.92-34.21-39.471 15.132-68.417 42.763-67.76 60.524 1.12 30.251.658 30.263.658 30.263" class="cls-8"/><path id="path50" d="M341.46 48.827s-19.078-.657-19.737 16.449a13.077 13.077 0 0 0 1.314 5.261s15.134-17.105 24.343-7.894" class="cls-8"/><path id="path52" d="M257.92 72.32s-3.285-26.256-25.67-10.992c-14.472 9.868-13.156 23.684-10.525 26.315 2.631 2.632 1.916 7.932 3.919 4.294 2.002-3.637 1.342-15.479 8.58-18.767 7.237-3.29 19.1-6.965 23.695-.85" class="cls-8"/><path id="path54" d="M196.068 250.137l-61.84 27.63s25.658 101.971 12.5 133.55l-9.211-3.289-.658-38.815-17.103-73.681-7.237-20.395 64.47-43.418 19.079 18.418" class="cls-10"/><path id="path56" d="M202.427 306.537l8.773 10.705v39.472h-10.527s-1.315-27.63-1.315-30.921c0-3.29 1.315-15.131 1.315-15.131" class="cls-10"/><path id="path58" d="M202.646 362.635l-29.604 1.314 8.554 5.921 21.05 3.29" class="cls-10"/><path id="path60" d="M303.96 356.055l24.341-.658 5.92 60.526-24.999 3.288-5.262-63.156" class="cls-5"/><path id="path62" d="M310.538 356.055l36.842-1.974s15.13-38.156 15.13-40.13 13.158-55.26 13.158-55.26l-29.604-30.92-5.921-5.263-15.79 15.789v61.182l-13.815 56.576" class="cls-5"/><path id="path64" d="M326.985 351.45l-23.025 4.605 3.288 18.422c8.552 3.947 23.027-6.58 23.027-6.58" class="cls-10"/><path id="path66" d="M327.644 236.323l46.05 34.209 1.317-15.789-34.868-32.235-12.5 13.815" class="cls-10"/><path id="path68" d="M225.477 485.662l-13.62-55.269-6.775-40.78-1.12-30.27 61.646-3.282 38.352-.006-3.487 69.083 5.92 53.288-.656 9.868-49.997 3.947-30.263-6.579" class="cls-11"/><path id="path70" d="M295.407 355.397s-3.288 68.42 6.58 117.102c0 0-19.736 12.5-48.684 15.789l55.262-1.974 6.578-3.947-7.895-107.89-1.973-23.029" class="cls-7"/><path id="path72" d="M335.343 410.665L361 403.428l48.681-2.631 7.238-22.367-13.159-38.815-15.13-1.974-21.052 6.579-20.198 9.861-10.723-1.967-8.356 3.283" class="cls-11"/><path id="path74" d="M334.88 397.5s17.102-7.892 19.735-7.234l-7.235-36.185 8.552-3.288s5.92 34.209 5.92 38.156c0 0 36.84 1.973 40.13 1.973 0 0 7.895-15.13 5.921-30.92l7.237 21.052.658 11.842-10.526 15.79-11.842 2.63-19.736-.657-6.578-8.552-23.026 3.288-7.237 2.633" class="cls-7"/><path id="path76" d="M309.027 350.8l-14.473-36.842-15.132-21.71s3.288-9.211 7.895-9.211h15.132l14.472 5.264-1.314 24.34-6.58 38.158" class="cls-12"/><path id="path78" d="M311.855 338.292s-18.422-35.523-18.422-40.786c0 0 3.288-7.895 7.895-5.921s14.474 7.235 14.474 7.235v-12.5l-22.369-4.606-15.13 1.973 25.657 60.525 5.262.66" class="cls-7"/><path id="path80" d="M231.399 251.461l-18.226-1.982-17.105-5.263v5.92l8.358 9.217 26.314 11.842" class="cls-12"/><path id="path82" d="M201.99 253.433s20.396 8.553 26.975 6.58l.654 7.886-18.417-3.94-11.185-7.894 1.974-2.632" class="cls-7"/><path id="path84" d="M335.272 285.277a125.002 125.002 0 0 1-30.078-4.145c.6-3.62-.523-7.172.379-9.779 2.46-1.772 6.586-1.745 10.306-2.161a17.931 17.931 0 0 0-11.449-1.293c-.087-2.512-1.214-4.07-1.897-6.035 6.277-2.24 21.092-16.926 29.427-12.063 3.971 2.313 5.658 15.525 5.966 21.949.257 5.329-.483 10.705-2.654 13.527" class="cls-1"/><path id="path86" d="M335.272 285.277a125.002 125.002 0 0 1-30.078-4.145c.6-3.62-.523-7.172.379-9.779 2.46-1.772 6.586-1.745 10.306-2.161a17.931 17.931 0 0 0-11.449-1.293c-.087-2.512-1.214-4.07-1.897-6.035 6.277-2.24 21.092-16.926 29.427-12.063 3.971 2.313 5.658 15.525 5.966 21.949.257 5.329-.483 10.705-2.654 13.527z" class="cls-13"/><path id="path88" d="M281.891 267.029c-.03.845-.065 1.695-.098 2.548-3.486 2.29-9.113 2.262-12.937 4.186a33.615 33.615 0 0 1 13.918 3.519q-.128 3.191-.25 6.38c-6.388 4.374-12.224 10.887-19.746 14.988-3.556 1.94-16.038 6.931-19.821 6.05-2.141-.498-2.334-3.155-3.19-5.659-1.823-5.362-6.02-13.898-6.387-21.97-.466-10.196-1.496-27.284 9.492-25.184a98.156 98.156 0 0 1 26.037 9.525c4.194 2.293 6.62 5.127 12.982 5.617" class="cls-1"/><path id="path90" d="M281.891 267.029c-.03.845-.065 1.695-.098 2.548-3.486 2.29-9.113 2.262-12.937 4.186a33.615 33.615 0 0 1 13.918 3.519q-.128 3.191-.25 6.38c-6.388 4.374-12.224 10.887-19.746 14.988-3.556 1.94-16.038 6.931-19.821 6.05-2.141-.498-2.334-3.155-3.19-5.659-1.823-5.362-6.02-13.898-6.387-21.97-.466-10.196-1.496-27.284 9.492-25.184a98.156 98.156 0 0 1 26.037 9.525c4.194 2.293 6.62 5.127 12.982 5.617z" class="cls-13"/><path id="path92" d="M288.237 279.194c-.975-5.554-2.102-7.138-1.666-11.984 14.812-9.876 17.593 16.964 1.666 11.984" class="cls-1"/><path id="path94" d="M288.237 279.194c-.975-5.554-2.102-7.138-1.666-11.984 14.812-9.876 17.593 16.964 1.666 11.984z" class="cls-13"/><path id="path96" d="M309.684 283.696s-4.607-6.58-1.317-8.554 6.58.002 8.554-3.288 0-5.263.657-9.21 3.95-4.607 7.238-5.264 12.5-1.974 13.815 1.316l-3.947-11.841-7.895-2.631-25 14.472-1.316 7.238v14.472" class="cls-14"/><path id="path98" d="M240.608 305.406q-1.186-15.4-2.558-30.777c-1.392-15.315 3.68-12.643 16.955-12.643 2.028 0 12.485 2.418 13.233 3.948 3.588 7.328-6 5.7 4.133 11.226 8.553 4.663 23.663-2.833 20.208-13.2-1.935-2.305-10.078-.718-12.997-2.232l-15.418-7.993c-6.54-3.393-21.652-8.339-28.624-3.598-17.665 12.013 1.115 42.03 7.417 54.562" class="cls-14"/><path id="path100" d="M257.92 72.32c-17.932-4.177-26.841 7.503-32.276 19.617-4.854-1.176-2.922-7.776-1.697-11.139 3.21-8.826 16.144-20.575 26.712-18.982 4.548.685 10.702 4.843 7.26 10.503" class="cls-15"/><path id="path102" d="M345.284 92.738l.85.034c4.052 8.418 7.56 17.334 12.671 24.765-3.424 7.975-25.93 15.033-25.582.712 4.867-2.127 13.269-.434 17.583-3.151-2.494-6.847-6.094-12.675-5.522-22.36" class="cls-15"/><path id="path104" d="M267.1 92.958c3.844 7.047 5.095 14.452 10.56 19.78 2.461 2.397 7.247 5.32 4.875 11.989-.555 1.573-4.607 5.08-6.945 5.769-8.544 2.522-28.452.52-21.71-10.13 7.065.329 16.562 4.588 21.844-.542-4.056-6.483-11.287-19.31-8.625-26.866" class="cls-15"/><path id="path106" d="M342.077 164.588c-12.864 8.264-27.208 17.25-48.287 15.165-4.503-3.915-6.22-12.629-1.845-18.384 2.278 3.916.847 11.118 7.194 12.201 11.96 2.047 25.88-7.316 34.483-10.588 5.335-8.994-.46-12.302-5.266-18.09-9.838-11.86-23.036-26.56-22.556-44.314 3.977-2.884 4.32 4.4 4.89 5.727 5.138 12.023 18.067 27.4 27.503 37.69 2.317 2.534 6.132 4.966 6.556 6.642 1.224 4.872-3.183 10.71-2.672 13.951" class="cls-15"/><path id="path108" d="M172.487 155.888c-4.032-2.3-4.992-12.437-9.726-12.726-6.765-.41-5.531 13.15-5.504 21.08-4.657-4.227-5.476-17.243-2.055-23.927-3.898-1.915-5.64 2.111-7.802 3.53 2.78-20.19 29.535-9.364 25.087 12.043" class="cls-15"/><path id="path110" d="M350.267 172.996c-5.988 11.397-14.458 23.95-32.03 24.315-.357-3.681-.631-9.282.02-11.499 13.433-1.29 21.726-8.127 32.01-12.816" class="cls-15"/><path id="path112" d="M266.086 180.385c11.207 5.893 31.804 6.527 47.036 6.08.817 3.338.797 7.461.829 11.53-19.58.978-42.731-3.868-47.865-17.61" class="cls-15"/><path id="path114" d="M263.956 191.374c7.75 19.458 34.385 17.218 56.847 16.681-.989 2.526-3.132 5.51-5.796 6.59-7.198 2.929-27.05 5.151-37.043-.156-6.337-3.369-10.409-10.981-13.881-15.443-1.677-2.156-10.026-7.66-.127-7.672" class="cls-15"/><path id="path116" d="M341.141 298.705c-9.094 15.576-17.796 31.574-28.586 45.313 4.524-13.3 6.46-35.561 7.143-52.532 9.464-4.429 17.567.997 21.443 7.22" class="cls-16"/><path id="path118" d="M390.08 354.687c-10.183 2.039-17.337 11.934-27.27 11.3 5.459-7.696 15.025-10.94 27.27-11.3" class="cls-15"/><path id="path120" d="M394.571 370.622c-8.299.876-18.047 2.22-26.464 1.528 3.985-6.087 19.338-3.987 26.464-1.528" class="cls-15"/><path id="path122" d="M397.447 384.36c-9.328.202-20.92.016-29.786-.727 5.244-5.633 23.737-2.09 29.786.727" class="cls-15"/><path id="path124" d="M323.592 421.956c1.338 11.714 5.982 23.583 5.4 36.411-5.157 1.74-8.12 3.26-15.03 3.251-.487-10.903-1.945-27.57-1.51-37.963 3.4.225 8.41-2.427 11.14-1.699" class="cls-7"/><path id="path126" d="M308.555 249.32c-4.683 3.057-8.672 6.874-13.17 10.138-9.975.493-15.418-.69-22.746-6.418.12-.46.857-.255.884-.82 10.677 4.76 24.25-1.937 35.032-2.9" class="cls-4"/><path id="path128" d="M252.503 322.103c2.934-12.713 14.429-19.296 24.867-26.297 10.774 13.674 17.326 31.258 24.542 48.228-17.048-5.14-34.468-13.478-49.409-21.931" class="cls-16"/><path id="path130" d="M312.453 423.655c-.436 10.393 1.022 27.06 1.51 37.963 6.91.01 9.872-1.512 15.029-3.25.582-12.83-4.062-24.698-5.4-36.412-2.73-.728-7.74 1.924-11.14 1.7zm-107.59-59.107c4.556 41.886 11.155 77.097 23.26 114.188 26.863 8.156 59.247 8.867 82.992 1.507-4.36-20.935-2.455-46.421-5.003-68.76-1.92-16.792-.942-33.687-3.575-50.818-28.771-5.985-69.438-1.399-97.674 3.883zm104.477-3.62c-.242 17.99.806 35.734 2.18 53.746 6.907-1.037 11.594-1.73 18.013-3.136-2.085-17.34-1.828-36.852-6.073-52.191-4.907.047-9.227-.057-14.12 1.581zm35.042-2.9c-3.278-.751-7.095-.029-10.227.032 1.472 14.664 5.044 30.846 6.302 46.238 4.928.154 7.56-2.17 11.614-2.952.217-13.512-1.18-32.127-7.689-43.317zm53.059 48.478c10.273-2.494 16.732-15.076 13.859-27.997-1.929-8.684-5.363-25.036-9.038-30.591-2.715-4.11-10.079-9.49-15.958-5.724-9.564 6.125-26.413 7.902-33.388 15.316 3.497 11.644 4.583 27.638 6.025 42.392 11.949.745 26.65-3.288 36.587.992-6.937 2.247-15.939 2.265-21.932 5.54 4.898 2.366 16.367 1.888 23.845.072zm-95.53-62.472c-7.215-16.97-13.767-34.554-24.541-48.228-10.439 7-21.933 13.584-24.867 26.297 14.941 8.453 32.36 16.791 49.409 21.93zm17.787-52.548c-.683 16.97-2.619 39.232-7.143 52.532 10.79-13.739 19.492-29.737 28.586-45.313-3.876-6.222-11.98-11.648-21.443-7.219zm-20.163-7.164c-4.087-.44-7.557 4.699-12.871 2.477-1.218 1.346-2.325 2.804-3.567 4.119 11.74 14.147 17.074 34.218 26.14 50.844 4.866-15.97 4.305-33.467 5.377-50.898-6.685.425-10.393-6.045-15.078-6.542zm-12.964-17.112c-.436 4.846.69 6.43 1.666 11.984 15.927 4.98 13.146-21.86-1.666-11.984zm-17.662-5.798a98.157 98.157 0 0 0-26.037-9.525c-10.988-2.102-9.958 14.988-9.492 25.184.366 8.072 4.564 16.608 6.387 21.97.856 2.504 1.049 5.161 3.19 5.658 3.783.882 16.265-4.109 19.821-6.049 7.522-4.1 13.358-10.614 19.747-14.987l.249-6.381a33.615 33.615 0 0 0-13.918-3.52c3.824-1.923 9.451-1.896 12.937-4.185.033-.853.069-1.703.098-2.548-6.363-.49-8.788-3.324-12.982-5.617zm-65.551-11.907c-5.696 5.783 15.975 13.665 22.875 14.09-.038-3.66 2.086-7.11 1.658-9.734-8.195-1.439-18.965-.49-24.533-4.356zm70.165 2.716c-.027.564-.764.359-.884.819 7.328 5.727 12.771 6.911 22.746 6.418 4.498-3.264 8.487-7.081 13.17-10.138-10.782.963-24.354 7.66-35.032 2.9zm64.403 19.529c-.307-6.424-1.995-19.636-5.966-21.949-8.334-4.865-23.15 9.823-29.427 12.063.683 1.966 1.81 3.523 1.897 6.035a17.931 17.931 0 0 1 11.45 1.293c-3.721.416-7.846.389-10.307 2.161-.902 2.607.22 6.16-.38 9.78a125.003 125.003 0 0 0 30.079 4.144c2.17-2.822 2.911-8.198 2.654-13.527zM193.77 255.098c-1.789-1.275-13.889-17.018-15.546-16.365-21.895 8.635-42.368 23.565-60.662 37.686 17.442 37.428 24.484 83.283 25.728 127.48 19.981 9.346 37.532 22.818 64.646 24.225-3.138-22.2-6.002-42.005-7.783-62.906-6.813-2.871-16.587.13-22.962-.89-.054-7.683 9.737-3.364 10.552-8.531.615-3.908-5.387-4.204-3.433-10.358 4.984 1.812 7.602 5.814 12.917 7.316 4.857-10.626-.067-29.427.633-38.308.132-1.667.832-9.238 4.568-7.91 3.305 1.176-.19 20.135.173 28.54.33 7.745-.935 15.238 2.201 20.1a748.696 748.696 0 0 1 81.174-6.65c-6.237-2.675-13.646-5.208-21.769-9.787-4.403-2.482-18.284-7.647-19.555-11.83-2.027-6.665 5.32-10.215 6.576-15.928-13.225 7.213-15.805-6.914-18.934-16.922a131.534 131.534 0 0 1-5.144-21.065c-11.393-5.431-23.574-10.932-33.38-17.897zm132.586-14.46c18.242-8.846 21.53 33.06 14.38 46.56 1.105 4.026 4.906 5.567 6.458 9.187-10.18 18.236-21.487 35.258-31.874 53.28 7.726-4.81 18.763-.86 27.855-4.461 3.324-1.314 5.73-8.923 8.246-15.01 6.922-16.745 14.188-37.857 17.421-53.838.73-3.641 2.72-11.575 2.274-14.816-.796-5.802-8.668-10.105-12.673-13.693-7.377-6.627-12.023-12.46-19.718-18.656-3.12 4.606-9.817 7.7-12.369 11.447zM152.05 78.864c-8.692 9.564-6.873 27.485-5.82 40.234 15.711-9.884 36.565.782 36.369 17.593 7.501-.2 2.802-9.369 1.445-15.276-4.434-19.294 7.47-40.256.54-57.9-13.457 1.02-24.512 6.517-32.534 15.349zm62.196-55.51c-19.678 5.577-44.898 19.876-52.985 37.554 6.262-.91 10.609-4.068 16.785-4.458 2.335-.152 5.393.978 8.076.311 5.347-1.326 9.859-13.314 13.892-17.774 3.932-4.356 8.658-6.217 11.892-10.188 2.078-1.002 5.15-.933 5.268-4.054-.9-.963-1.849-1.697-2.928-1.391zM316.682 28.6c-20.425-11.524-54.997-20.192-76.724-9.361-17.53 8.741-41.228 23.204-49.308 41.53 7.548 17.686-2.235 33.892-2.86 51.848-.331 9.554 4.499 17.895 4.869 28.296-2.583 4.26-10.474 4.786-15.936 4.494-1.839-9.201-5.057-19.543-14.532-20.581-13.407-1.467-23.21 9.629-23.818 21.224-.721 13.636 10.473 36.236 26.339 34.667 6.129-.606 7.635-6.75 14.313-6.687 3.619 7.221-5.584 9.49-6.53 14.654-.247 1.334.763 6.549 1.35 8.994 2.882 11.907 9.306 27.317 15.63 36.382 8.025 11.498 23.793 13.23 40.756 14.358 3.03-6.527 14.19-5.99 21.463-4.283-8.716-3.452-16.818-11.82-23.533-19.227-7.714-8.498-15.527-17.615-15.922-28.722 14.576 20.222 26.619 37.882 53.124 46.777 20.055 6.726 43.478-3.083 58.888-13.904 6.395-4.498 10.212-11.635 14.757-18.168 17.007-24.463 24.943-59.38 23.198-93.224-.719-13.957-.687-27.867-5.37-37.258-4.895-9.818-21.45-18.603-31.14-9.722-1.796-9.548 8.058-15.453 19.633-12.017-8.253-10.652-16.915-23.45-28.647-30.07zm38.054 314.925c15.96-7.935 45.782-21.357 55.788.029a181.33 181.33 0 0 1 9.937 29.346c2.702 11.48-2.929 35.61-14.729 39.463-10.423 3.402-22.584 3.194-35.138.673a19.143 19.143 0 0 1-4.275-5.608c-8.964-.347-17.358.482-24.44 4.167.672 6.629-3.813 7.693-8.016 9.058-3.117 12.357 6.234 28.494 3.996 39.761-1.596 8.027-11.472 9.268-18.731 10.77a61.667 61.667 0 0 0 .813 11.958c-1.66 6.116-9.105 9.598-16.158 10.45-23.208 2.791-58.446 4.045-80.768-3.982-6.23-15.28-11.137-33.863-16.325-51.31-21.772 2.325-39.38-9.395-55.98-17.072-5.747-2.665-13.698-4.133-15.845-8.707-2.082-4.43-1.23-12.918-1.746-20.937-1.315-20.48-2.44-40.234-7.849-61.204-2.428-9.41-6.66-17.713-9.613-26.78-2.73-8.404-7.498-18.789-8.741-27.169-1.844-12.42 9.85-13.11 17.329-18.493 11.56-8.322 20.634-12.925 33.154-20.436 3.709-2.225 14.891-7.855 16.163-10.449 2.529-5.141-4.34-12.39-6.176-16.42a49.39 49.39 0 0 1-4.837-18.075 34.87 34.87 0 0 1-23.273-14.958c-7.955-11.664-13.472-33.243-6.59-49.658.54-1.293 3.232-3.835 3.63-5.82.783-3.91-1.475-9.109-1.615-13.267-.723-21.335 3.61-39.717 17.973-46.151 5.83-23.228 26.699-30.95 46.36-42.494 7.35-4.314 15.452-7.072 23.819-10.15C252.868-.987 298.92 1.093 323.83 19.934c10.563 7.989 27.447 24.857 33.486 37.07 15.951 32.243 14.818 86.129 3.661 125.35-1.5 5.266-3.675 13.007-6.712 19.332-2.118 4.417-8.7 13.255-7.9 17.155.823 4.032 15.007 14.802 18.048 17.735 5.477 5.283 15.882 12.296 16.725 18.962.906 7.096-3.126 16.802-5.17 23.648-6.828 22.849-13.49 43.969-21.233 64.339" class="cls-15"/><path id="path132" d="M248.253 185.362c.866-1.152 5.626-2.903 12.287.304 0 0-7.894 1.317-7.237 14.479l-3.29-.66s-3.4-11.934-1.76-14.123" class="cls-8"/><path id="path134" d="M305.934 298.492a3.619 3.619 0 1 1-3.62-3.62 3.618 3.618 0 0 1 3.62 3.62" class="cls-17"/><path id="path136" d="M309.552 315.268a3.619 3.619 0 1 1-3.62-3.62 3.618 3.618 0 0 1 3.62 3.62" class="cls-17"/></g></g></svg>