<svg xmlns="http://www.w3.org/2000/svg" role="img" viewBox="28.77 -2.23 296.21 362.96"><defs><style>.cls-1{fill:#d23933}.cls-2{fill:#221f1f}.cls-4{fill:#326ce5}.cls-5{fill:#8a5d3b}.cls-6{fill:#dbd8d7}.cls-7{fill:#f6e3cd}.cls-8{fill:#159fd6}.cls-9{fill:#fff}.cls-13{fill:#f2b445}.cls-14{fill:#f5e776}</style></defs><path d="M185.569 254.326a4.418 4.418 0 0 1-.986-.098c-1.862-.428-2.35-2.212-2.743-3.646-.089-.326-.18-.662-.289-.992-.276-.818-.656-1.794-1.058-2.827-1.38-3.55-3.1-7.969-3.261-12.333l-.026-.544c-.27-5.694-.637-13.493 2.901-16.565a5.643 5.643 0 0 1 4.994-1.142 67.614 67.614 0 0 1 17.906 6.51c.733.43 1.342.844 1.932 1.243a11.495 11.495 0 0 0 6.271 2.479l1.198.091-.131 3.57-.54.353a11.64 11.64 0 0 1-3.606 1.424 23.676 23.676 0 0 1 4.14 1.608l.719.36-.225 5.687-.513.356c-1.64 1.136-3.238 2.491-4.93 3.926a51.48 51.48 0 0 1-8.487 6.244c-1.5.817-9.377 4.296-13.266 4.296zm-1.89-35.79a2.833 2.833 0 0 0-1.933.672c-2.623 2.278-2.274 9.67-2.043 14.56l.026.558c.147 3.955 1.781 8.155 3.094 11.53.412 1.06.801 2.061 1.1 2.943.125.38.229.756.328 1.123.303 1.105.514 1.783.896 1.87 1.922.447 9.656-2.414 12.491-3.957a49.552 49.552 0 0 0 8.067-5.956c1.568-1.33 3.058-2.592 4.61-3.712l.114-2.82a21.331 21.331 0 0 0-8.144-1.896l-.523-2.367a18.73 18.73 0 0 1 4.34-1.332 18.399 18.399 0 0 0 3.532-1.018 14.366 14.366 0 0 1-6.097-2.732 32.74 32.74 0 0 0-1.753-1.132 65.105 65.105 0 0 0-17.174-6.24 5.01 5.01 0 0 0-.931-.094z" class="cls-1"/><path d="M184.26 28.618a18.988 18.988 0 0 0-14.528 0l-97.04 46.726a19.031 19.031 0 0 0-9.058 11.41l-23.97 105a18.967 18.967 0 0 0 3.194 14.168l67.194 84.128a18.988 18.988 0 0 0 13.05 6.386h107.714a18.967 18.967 0 0 0 13.124-6.386l67.162-84.213a19.02 19.02 0 0 0 3.193-14.167L290.368 86.754a19.031 19.031 0 0 0-9.058-11.368z" class="cls-1"/><path d="M230.918 299.936l-108.035-.007a22.338 22.338 0 0 1-15.455-7.562l-.11-.132-67.32-84.296a22.32 22.32 0 0 1-3.782-16.781l.037-.183L60.269 85.793a22.382 22.382 0 0 1 10.723-13.509l.182-.094 97.219-46.806a22.348 22.348 0 0 1 17.206 0l.18.08 97.23 46.861a22.388 22.388 0 0 1 10.722 13.458l.05.192 23.963 105.102a22.374 22.374 0 0 1-3.78 16.774l-.126.168-67.274 84.347a22.61 22.61 0 0 1-15.544 7.564zm-107.702-7H230.71a15.572 15.572 0 0 0 10.551-5.14l67.036-84.056a15.414 15.414 0 0 0 2.564-11.389L286.979 87.634a15.427 15.427 0 0 0-7.282-9.14l-96.863-46.678a15.384 15.384 0 0 0-11.677 0L74.307 78.45a15.429 15.429 0 0 0-7.282 9.178l-23.926 104.81a15.36 15.36 0 0 0 2.562 11.385l67.07 83.972a15.382 15.382 0 0 0 10.485 5.14z" class="cls-2"/><path fill="#f0d6b7" d="M236.99 57.388l5.726 9.164 7.046 12.868 1.778 31.932-5.322 27.493-9.76 24.395-9.314 12.858-6.652 7.1-17.743 2.66-23.938 2.661-15.53.436-15.082-.436-11.527-3.555-10.197-11.08-7.982-22.618-1.778-4.907-10.644-3.544-6.205-10.197-4.439-14.614 4.875-12.868 11.538-3.992 9.313 4.439 4.439 9.76 5.322-.894 1.767-2.214-1.767-10.197-.362-12.868 1.064-7.227 1.597-.543 5.322-1.777c9.654-3.193 13.911-4.641 19.467-6.961l1.065-.437c3.108-1.32 5.002-2.214 11.09-5.12 14.06-6.726 20.692-9.015 28.281-9.015.49 0 1.49 0 3.108.107l5.545.276c3.62.17 6.6.288 9.495.362a116.502 116.502 0 0 0 14.816-.404 34.519 34.519 0 0 0 5.588-1.043z"/><path d="M163.3 189.58l-15.285-.463-11.689-3.605-.114-.125-10.283-11.174-9.698-27.356-10.575-3.522-6.388-10.535-4.5-14.818 5.053-13.341 12.057-4.17 9.75 4.646 4.334 9.53 4.613-.775 1.442-1.807-1.719-9.92-.372-13.012.008-.053 1.12-7.606 7.283-2.444c9.75-3.225 13.95-4.659 19.425-6.945l1.067-.438c3.132-1.33 5.15-2.286 11.06-5.106 14.716-7.04 21.12-9.076 28.549-9.076.49 0 1.51 0 3.15.108l5.534.276c3.79.179 6.714.29 9.48.361a116.45 116.45 0 0 0 14.743-.401 33.945 33.945 0 0 0 5.48-1.024l.448-.123 5.973 9.56 7.132 13.022 1.79 32.15-5.37 27.683-9.835 24.53-9.313 12.857-6.85 7.319-17.959 2.693-23.961 2.664zm-14.997-1.683l14.997.433 15.493-.436 23.886-2.657 17.505-2.626 6.504-6.94 9.218-12.735 9.71-24.269 5.295-27.358-1.765-31.713-6.978-12.744-5.464-8.742a35.236 35.236 0 0 1-5.239.943 117.66 117.66 0 0 1-14.902.407 439.8 439.8 0 0 1-9.501-.362l-5.547-.277c-1.607-.106-2.6-.106-3.077-.106-7.21 0-13.492 2.009-28.011 8.954-5.928 2.83-7.954 3.788-11.116 5.131l-1.071.44c-5.512 2.301-9.728 3.74-19.509 6.976l-6.552 2.196-1 6.795.36 12.814 1.805 10.385-2.09 2.62-6.032 1.013-4.543-9.99-8.876-4.23-11.02 3.812-4.695 12.395 4.353 14.335 6.045 9.933 10.713 3.568 1.88 5.191 7.943 22.502 9.996 10.861z"/><path d="M204.92 259.385l-63.416 2.661v10.644l5.322 37.253-2.66 3.108-44.353-15.082-3.098-5.322-4.48-50.11L82.08 212.35l-2.224-7.088 35.486-24.396 11.08-4.438 9.76 11.974 8.43 7.546 9.76 3.098 4.429 1.33 5.321 23.065 3.992 4.875 10.207-3.544 14.806-9.973 8.749-4.769 7.93 46.673-4.886 2.661" class="cls-4"/><path d="M130.935 81.432l-1.852 16.945 2.661 10.197-1.32 5.322-5.322.894-4.438-9.76-9.27-4.44-11.539 3.992-.681-5.8a16.179 16.179 0 0 0 6.79-.767c5.557-1.703 9.144-4.46 14.69-9.984l.52-.521.512-.5a46.46 46.46 0 0 1 3.98-3.683c1.693-.618 3.492-1.278 5.27-1.895z" class="cls-5"/><path d="M104.017 98.537c.085 1.064 0 .074.681 2.97l-4.885 3.097-.682-5.801c2.768.18 1.14.18 4.886-.266z" class="cls-6"/><path d="M118.844 142.75l5.811-5.63a3.747 3.747 0 0 1 3.066 3.406c.436 3.108 1.767 31.048 20.84 46.13 1.735 1.373-14.199-2.224-14.199-2.224l-14.188-22.171m79.648-32.879s1.064-13.443 4.65-12.41a4.981 4.981 0 0 1 3.62 4.65s-8.792 5.695-8.27 7.76m-76.497-15.018s-16.86-10.197-18.627-.437-5.769 16.85 2.661 27.046l-5.769-1.767-5.322-13.751-1.777-13.305 10.207-10.644 11.527.884 6.653 5.321zm9.611-33.592c-1.064 2.736-.394.905-1.618 5.588v-5.024l1.384-.468z" class="cls-7"/><path d="M136.182 188.423l-41.35 17.967s17.38 68.471 8.089 90.696l-6.206-2.214-.447-26.173-11.484-49.664-4.886-13.752 1-9.58 46.259-13.921 9.068 6.599m-5.95 55.252l5.162 6.652.745 10.889-3.246.298s-4.513-11.357-4.513-13.582a11.197 11.197 0 0 0-1.533-4.758m13.73 21.138l-19.36-.33 2.682 5.259 16.679 2.129" class="cls-8"/><path d="M208.911 259.832l16.413-.447 3.992 40.809-16.807 2.213-3.555-42.575m29.228-1.33s10.207-25.726 10.207-27.057 12.304-43.15 12.304-43.15l-23.416-14.9-3.97-3.62-10.644 10.644-5.013 22.618-15.785 7.014 6.195 49.058" class="cls-4"/><path d="M207.564 259.171l-6.241-49.425 15.893-7.063 4.99-22.514 11.085-11.085 4.323 3.94 23.666 15.052-.107.36c-4.888 16.615-12.194 41.784-12.284 43.022 0 1.344-8.532 22.917-10.242 27.229l-.93-.37c4.04-10.18 10.081-25.74 10.172-26.882 0-1.321 10.544-37.227 12.219-42.92l-23.1-14.699-3.684-3.35-10.204 10.204-5.037 22.722-15.674 6.965 6.147 48.69z" class="cls-4"/><path d="M224.44 256.724l-15.529 3.108 2.225 12.422c5.758 2.66 15.519-4.439 15.519-4.439m13.411-79.519l20.627 3.544-2.128-8.153-25.003-9.654 4.258 14.273" class="cls-8"/><path d="M156.012 347.207l-9.186-37.253-4.566-27.504-.756-20.404 41.511-2.214h25.854l-2.342 46.567 3.992 35.923-.447 6.652-33.71 2.661-20.393-4.428" class="cls-9"/><path d="M203.153 259.385s-2.224 46.13 4.428 78.945a84.672 84.672 0 0 1-32.815 10.644l37.253-1.33 4.439-2.661-5.322-72.73-1.33-15.529" class="cls-6"/><path d="M230.071 296.65l17.296-4.886 32.815-1.714 4.886-15.082-8.877-26.163-10.197-1.33-14.188 4.428-13.624 6.652-7.227-1.33-5.673 2.16" class="cls-9"/><path d="M229.763 287.772s11.527-5.322 13.304-4.875l-4.885-24.395 5.769-2.214s3.991 23.054 3.991 25.715c0 0 24.832 1.33 27.057 1.33 0 0 5.322-10.196 3.991-20.84l4.832 14.188.447 7.983-7.099 10.644-7.983 1.778-13.305-.447-4.438-5.759-15.519 2.214-4.874 1.778" class="cls-6"/><path d="M160.003 189.317l-12.293-1.33-11.527-3.555v3.991l4.417 7.674 18.956 6.525" class="cls-9"/><path d="M140.131 190.648s13.837 5.737 18.233 4.438l-4.992 20.883-7.45-12.42-7.079-11.124 1.33-1.777" class="cls-6"/><path d="M230.029 212.116a84.798 84.798 0 0 1-20.224-2.788c.405-2.448-.361-4.843.256-6.6 1.65-1.192 4.438-1.17 6.94-1.458a12.155 12.155 0 0 0-7.717-.872c-.053-1.693-.82-2.736-1.277-4.066 4.257-1.512 14.22-11.41 19.84-8.132 2.671 1.564 3.81 10.463 4.023 14.795.17 3.597-.33 7.216-1.788 9.121" class="cls-1"/><path d="M231.225 213.91l-.642-.011a86.231 86.231 0 0 1-20.521-2.83l-1.1-.29.185-1.123a13.838 13.838 0 0 0 .047-3.05 9.547 9.547 0 0 1 .263-3.76l.13-.369.317-.228a3.73 3.73 0 0 1 .1-.072l-1.348.292-.046-1.5a6.178 6.178 0 0 0-.698-2.44c-.181-.41-.362-.82-.512-1.259l-.404-1.17 1.167-.414a29.296 29.296 0 0 0 4.94-2.983c5.064-3.44 11.367-7.722 15.948-5.051 3.868 2.264 4.574 14.433 4.642 15.813.054 2.61-.146 7.318-2.085 9.929zm-19.49-4.993a83.652 83.652 0 0 0 18.193 2.467c.868-1.602 1.337-4.454 1.267-7.832-.286-5.799-1.67-12.725-3.406-13.741-3.215-1.88-9.034 2.074-13.28 4.96a48.17 48.17 0 0 1-4.315 2.736l.004.008a11.16 11.16 0 0 1 .722 1.977 13.515 13.515 0 0 1 7.186 1.178l3.993 1.87-4.38.504c-.52.06-1.05.107-1.581.154a12.874 12.874 0 0 0-4.425.864 10.536 10.536 0 0 0-.024 2.4 21.663 21.663 0 0 1 .047 2.455zm-17.693-9.105a13.35 13.35 0 0 1-.074 1.724c-2.342 1.544-6.142 1.522-8.718 2.821a22.501 22.501 0 0 1 9.388 2.374c-.064 1.426-.117 2.863-.17 4.257-4.31 2.948-8.238 7.334-13.316 10.101-2.394 1.31-10.814 4.673-13.358 4.077-1.447-.33-1.575-2.13-2.128-3.81-1.235-3.62-4.066-9.367-4.311-14.817-.309-6.865-1-18.392 6.386-16.977a65.778 65.778 0 0 1 17.552 6.386c2.831 1.544 4.47 3.449 8.76 3.779" class="cls-1"/><path d="M198.32 208.018c-.659-3.746-1.425-4.81-1.127-8.078 9.983-6.663 11.857 11.431 1.128 8.078" class="cls-1"/><path d="M201.323 210.207a9.57 9.57 0 0 1-2.843-.463l-.726-.228-.133-.749a43.887 43.887 0 0 0-.612-2.857 14.808 14.808 0 0 1-.53-5.551l.055-.595.497-.332c4.592-3.062 7.384-1.227 8.37-.3a7.04 7.04 0 0 1 1.05 8.292 5.66 5.66 0 0 1-5.128 2.783zm-1.385-2.658c2.03.452 3.56-.026 4.355-1.387a4.547 4.547 0 0 0-.606-5.21c-1.095-1.029-2.773-.94-4.76.24a12.575 12.575 0 0 0 .514 4.133c.154.645.326 1.358.497 2.224z" class="cls-1"/><path fill="#ee3e3b" d="M212.775 211.052s-3.108-4.438-.883-5.769 4.428 0 5.758-2.214 0-3.544.447-6.205 2.661-3.108 4.875-3.555 8.43-1.33 9.313.894l-2.66-7.983-5.323-1.778-16.849 9.814-.883 4.875v9.76m-40.361 16.796q-.799-10.378-1.725-20.745c-.936-10.324 2.48-8.515 11.432-8.515 1.362 0 8.419 1.629 8.92 2.661 2.415 4.94-4.045 3.843 2.788 7.568 5.758 3.14 15.966-1.905 13.624-8.898-1.31-1.554-6.802-.49-8.77-1.5l-10.389-5.397c-4.406-2.289-14.593-5.62-19.297-2.427-11.91 8.1.756 28.334 5.002 36.785"/><path d="M120.291 124.89c-2.725-1.553-3.374-8.387-6.556-8.578-4.566-.277-3.736 8.866-3.715 14.21-3.193-2.843-3.693-11.624-1.384-16.126-2.629-1.288-3.8 1.426-5.258 2.373 1.874-13.602 19.904-6.311 16.913 8.122m146.682 134.015c-6.865 1.373-11.708 8.047-18.382 7.621 3.683-5.194 10.123-7.376 18.382-7.62m3.012 10.739c-5.588.596-12.165 1.5-17.839 1.064 2.693-4.098 13.039-2.682 17.84-1.064m1.947 9.271c-6.28.127-14.103 0-20.074-.5 3.534-3.79 15.966-1.406 20.074.5" class="cls-2"/><path d="M222.152 304.26c.905 7.897 4.034 15.89 3.64 24.544-3.48 1.17-5.47 2.193-10.132 2.193-.33-7.355-1.31-18.584-1.065-25.599 2.3.16 5.673-1.628 7.515-1.138" class="cls-6"/><path d="M212.009 187.87c-3.193 2.054-5.035 6.024-8.068 8.217-6.716.34-17.956-2.523-22.895-6.386.074-.31 6.248-1.065 6.259-1.416 7.205 3.193 22.351-3.257 29.61-3.906" class="cls-7"/><path d="M157.992 71.927v.937l-.181 7.45-.426 3.194c-1.277 2.597-4.343 8.046-6.386 11.144l-.533-1.842c1.778-3.033 2.917-5.95 5.663-10.931v-9.154l1.341-.553z"/><path d="M237.81 184.038l2.256 12.06-10.41-9.931-8.579-4.343 4.47-4.523 7.739-6.387zm-133.697-84.98l.585 2.448-4.885 3.097-.5-4.257c2.235-.075 1.202.117 3.107-.468a9.057 9.057 0 0 0 1.693-.82z" class="cls-6"/><path d="M120.291 124.89c-2.725-1.553-3.374-8.387-6.556-8.578-4.566-.277-3.736 8.866-3.715 14.21-3.193-2.843-3.693-11.624-1.384-16.126-2.629-1.288-3.8 1.426-5.258 2.373 1.874-13.602 19.904-6.311 16.913 8.122m13.029 63.405s-6.92 3.193-16.211 6.46c-12.134 3.406-17.456 9.58-20.862 6.312-4.258-2.129-12.421-4.97-12.421-4.97l-3.545 4.619a41.596 41.596 0 0 1 17.765 5.673c4.8-2.906 13.954-6.95 13.954-6.95l16.891-6.174 7.291-2.842zm110.44-4.876l13.74 2.257 1.065 2.619-12.368-1.682-8.388-2.182.139-2.608z" class="cls-2"/><path d="M236.564 176.63l3.374 9.186 2.267 9.047.266 3.991-7.323-2.395-.266-2.927 5.056 2.661-1.884-9.451-4.79-11.57z" class="cls-2"/><path fill="#f1f1f2" d="M136.182 72.193l-25.3 14.23-18.094 14.242-4.524-3.406-3.725-10.1 7.184-14.434 56.923-44.97 19.979-13.304 46.034-7.983 29.004 10.91 15.434 18.892-5.854 20.224-19.68-5.588-25.759.532-36.252 6.652z"/><path d="M91.99 100.665l3.99 6.919 25.812-14.103 37.498-19.957 26.343-8.25 27.92-4.576 30.355 1.65 9.313 1.458v-7.578l-27.673-5.855-40.447 4.524-34.603 11.176-33.517 16.498-21.287 15.966z" class="cls-4"/><path d="M95.792 108.257l-4.486-7.776 4.139-2.378L116.68 82.17l33.597-16.547L185.045 54.4l40.527-4.532 28.149 5.954v8.569l-9.89-1.55-30.252-1.64-27.865 4.567-26.274 8.233-37.413 19.921zm-3.12-7.408l3.498 6.062 25.383-13.87 37.502-19.959 26.429-8.284 28.04-4.602.055.003 30.357 1.65 8.785 1.373v-6.59l-27.198-5.753-40.317 4.51-34.554 11.16-33.45 16.47-21.209 15.917z" class="cls-4"/><path fill="#a6a8ab" d="M136.182 37.292l-30.26 25.875-13.932 8.25-7.451 15.741 2.98 7.973 6.323 7.312 9.579-9.015s-4.609-9.441-5.322-12.06 4.588-7.95 8.845-12.208 12.347-8.728 17.03-11.07 15.21-11.389 16.604-14.05 9.995-15.752 9.995-15.752z"/><path d="M215.521 4.85c8.813.373 23.417 7.972 29.93 12.06 7.973 5.013 13.922 14.986 15.242 20.223s-.574 10.292-4.79 18.094c-1.415 8.249-2.128 12.06-2.128 12.06l-126.15 26.321s-8.515 3.438-13.358 7.377c-6.472-.054-12.964 4.736-12.964 4.736l-6.834 3.46s-4.96-7.813-8.153-12.273c-6.748-5.822-6.524-6.173-3.193-14.337 6.386-14.199 6.248-11.985 14.902-19.074s23.81-17.253 27.673-21.021c12.06-9.995 27.312-22.703 36.679-28.387 12.379-7.504 38.892-9.239 53.144-9.239zM210.2 9.48c-11.772.83-18.382 1.778-38.424 6.738-13.688 8.834-16.349 10.707-25.896 18.456-7.27 5.886-11.878 8.75-21.65 17.03-7.067 5.992-23.267 15.742-32.516 25.545-2.204 8.909-10.101 11.708-.713 19.159 4.257 7.45 4.257 6.652 4.257 6.652a26.876 26.876 0 0 1 8.047-4.257 44.045 44.045 0 0 1 9.143-1.725c8.206-5.992 3.906-2.682 13.326-7.354s123.819-25.546 123.819-25.546a37.774 37.774 0 0 0 2.693-10.728c3.906-7.09 4.14-10.336 3.725-14.987-2.66-9.132-5.758-13.454-13.613-18.01-9.111-5.3-16.966-8.376-32.155-10.973zm-14.391 237.346c3.065-.469 4.683 2.746 4.598 4.48a4.715 4.715 0 0 1-4.507 4.915l-.091.003a4.768 4.768 0 0 1-4.874-4.66v-.108c0-2.608 1.798-4.173 4.874-4.63z" class="cls-2"/><path d="M192.286 251.307c-.139-2.214 1.394-3.46 3.448-3.513 2.544.224 3.502.916 3.428 3.193s-.437 3.194-3.193 3.438c-3.023.362-3.555-.915-3.683-3.118z" class="cls-13"/><path d="M194.957 251.882a1.958 1.958 0 0 1-1.99-1.926v-.001c0-1.064.777-1.533 1.873-1.533s1.66.522 1.66 1.586-.446 1.874-1.543 1.874z" class="cls-14"/><path d="M287.856 271.05a121.976 121.976 0 0 0-6.705-19.775c-6.748-14.423-26.844-5.375-37.605 0 5.216-13.73 9.707-27.972 14.316-43.374a113.015 113.015 0 0 0 5.184-23.576c-4.077-5.321-7.27-5.321-12.422-6.45-9.579-3.97-14.699-4.353-15.252-7.078s6.386-12.166 7.855-15.146a85.384 85.384 0 0 0 4.524-13.028c6.322-26.695 8.908-54.336-.777-80.627a4.79 4.79 0 0 1-2.13.884h.171l-.958.309c-2.075.521-1.309.468-2.267.521a3.193 3.193 0 0 1-.575 1.235l-.298.394a49.259 49.259 0 0 1 4.034 8.578c3.193 6.387 3.14 15.71 3.62 25.12 1.18 22.81-4.173 46.353-15.637 62.798-3.065 4.407-5.64 9.218-9.951 12.251-10.389 7.291-26.173 13.911-39.702 9.377-17.86-6.003-25.981-17.903-35.805-31.537.266 7.45 5.534 13.634 10.728 19.36 4.535 4.993 9.995 10.644 15.87 12.965-4.906-1.15-12.432-1.512-14.475 2.884-11.432-.755-22.065-1.926-27.472-9.675-4.257-6.11-8.59-16.498-10.537-24.534a27.674 27.674 0 0 1-.905-6.056c.639-3.48 6.833-5.013 4.396-9.878-4.502 0-5.513 4.098-9.643 4.503-10.697 1.064-18.244-14.178-17.754-23.363.404-7.824 7.014-15.306 16.05-14.316 6.387.702 8.516 7.674 9.793 13.837 3.683.191 9.005-.16 10.75-3.034-.255-7.014-3.512-12.634-3.289-19.073a50.205 50.205 0 0 1 1.065-7.877 6.791 6.791 0 0 1-1.31.34 4.258 4.258 0 0 1-2.384-.244c-.127 1-.35 2-.393 3.012-.32 6.94-.341 5.514.51 10.697.916 3.98 4.088 10.165-.968 10.303.128-11.335-13.933-18.52-24.48-11.857v-.34l-.533.244a8.515 8.515 0 0 1-1.341.415c-1.469.181-3.662.32-4.811-.958a7.057 7.057 0 0 1 0 2.672c-.266 1.341-2.129 3.055-2.448 3.928-4.64 11.059-.916 25.609 4.449 33.474a23.48 23.48 0 0 0 15.689 10.08 33.262 33.262 0 0 0 3.257 12.187c1.234 2.714 8.419 12.773 6.716 16.19-.851 1.756-17.69 7.386-20.223 8.887-6.77 1.426-5.322.362-15.646 1.777-5.322.352-14.008 7.59-12.773 15.966.83 5.652 5.173 14.188 7.014 19.85 1.99 6.11 4.843 11.709 6.482 18.095 3.64 14.135 4.396 27.45 5.322 41.266.34 5.396-.234 11.123 1.171 14.114s6.812 4.066 10.644 5.864c11.186 5.173 23.054 13.082 37.732 11.506 3.502 11.762 6.812 24.29 11.006 34.593 15.05 5.407 38.807 4.566 54.453 2.682 4.747-.575 9.771-2.916 10.889-7.046a41.842 41.842 0 0 1-.543-8.058c4.885-1.01 11.548-1.852 12.623-7.259 1.512-7.6-4.8-18.477-2.692-26.8 2.83-.927 5.854-1.64 5.407-6.11 4.768-2.48 10.43-3.044 16.476-2.81a12.773 12.773 0 0 0 2.874 3.778c8.462 1.703 16.668 1.842 23.693-.447 7.962-2.597 11.761-18.871 9.941-26.61zm-59.669-83.02c2.683 1.553 3.821 10.462 4.024 14.794.17 3.587-.32 7.217-1.788 9.122a84.235 84.235 0 0 1-20.277-2.789c.405-2.437-.351-4.832.256-6.588 1.66-1.203 4.438-1.182 6.95-1.458a12.092 12.092 0 0 0-7.717-.873c-.064-1.692-.82-2.746-1.277-4.066 5.641-2.48 9.994-7.664 16.274-8.728 2.853.181 1.714-.16 3.555.628zm-39.382 1.628c7.196 3.193 16.35-1.31 23.619-1.958-3.193 2.064-5.844 4.64-8.877 6.833-6.727.34-10.399-.458-15.338-4.322.075-.212.575-.127.586-.51zm9.867 18.222c-.66-3.736-1.416-4.81-1.117-8.079a8.132 8.132 0 0 1 4.065-1.479c7.696 1.107 4.332 12.709-2.948 9.558zm-33.943-17.956a8.825 8.825 0 0 1 2.065-.564l1.299.117a66.406 66.406 0 0 1 17.551 6.386c2.831 1.544 4.46 3.46 8.75 3.79l-.065 1.713c-2.352 1.543-6.141 1.522-8.717 2.82a22.735 22.735 0 0 1 9.377 2.374 473.872 473.872 0 0 1-.17 4.258c-4.257 2.948-8.238 7.344-13.305 10.111-2.405 1.299-10.814 4.673-13.368 4.077-1.437-.34-1.565-2.129-2.129-3.821-1.224-3.608-4.055-9.367-4.258-14.806-.191-3.874-1.298-13.964 3.013-16.455zm-27.28-3.842c3.757 2.607 15.018 3.757 20.543 4.725.287 1.767-1.65 6.844-.98 12.432-.968-.053-2.245 2.8-4.928 8.388-3.587-6.653-4.257-7.323-8.78-11.975-4.482-7.056-8.495-10.856-5.812-13.57zm20.777 156.314c-8.164-25.002-12.613-48.738-15.679-76.976 15.115-2.724 30.42-4.63 45.769-4.513 6.705.267 13.453.416 20.031 1.895 1.778 11.549 1.065 22.937 2.406 34.262 1.724 15.061.436 32.24 3.374 46.354-15.998 4.96-37.807 4.481-55.901-1.022zm67.992-13.73c-3.47 1.17-5.47 2.203-10.122 2.192-.33-7.344-1.32-18.584-1.064-25.545 2.32-.064 4.449-1.064 6.748-1.234l.755.085c.916 7.855 4.045 15.859 3.651 24.502zm-11.772-29.452c-.926-12.144-1.639-24.108-1.469-36.189a29.054 29.054 0 0 1 9.516-1.064c2.863 10.335 2.693 23.49 4.098 35.178-4.364.905-7.525 1.426-12.177 2.075zm2.555-43.82c-3.62 2.129-8.611-1.352-19.776-.766-19.16.521-45.63 2.799-63.288 5.204a31.208 31.208 0 0 1-4.652-12.357c-.883-5.663-3.374-7.674-4.31-5.503-1.65 3.842-.905.373 4.31 17.03 1.065 3.555-1.905-4.108-5.268-5.322-1.32 4.151 1.224 4.013 3.193 6.706s-6.578-1.192-6.546 3.991c4.257.681 14.06-.33 18.648 1.607 1.203 14.082 3.14 27.44 5.247 42.405-18.275-.947-30.111-10.037-43.575-16.327-.841-29.803-7.142-62.596-18.904-87.822.713-6.386 3.193-8.877 10.293-8.515 6.045-3.193 24.331-7.068 35.124-11.314 1.118-.437 6.323 6.47 7.525 7.333 3.662 4.683 3.928 7.217 9.516 13.464 1.724 2.268 7.057 10.719 8.302 11.315 1.64.777 3.555-9.814 5.162-9.047.48 3.523 1.065 4.427 2.991 10.537 2.129 6.748 3.076 15.05 12.773 11.41s20.393-12.283 21.49-13.528 1.575-1.873 2.394-2.778c3.587 1.5 5.929-1.97 8.686-1.671 3.193.34 8.078 3.193 15.082 3.768s10.825.883 12.687-1.831c4.822-9.1 2.608-37.349-9.696-31.389 1.724-2.522 4.981-3.746 7.078-6.854 5.194 4.183 8.142 2.82 14.177 6.386 10.112 2.885 11.166 3.544 11.709 7.45.298 2.193-3.832 14.647-4.322 17.105-2.129 10.772-7.078 25.003-11.708 36.285-1.703 4.108-3.32 9.239-5.556 10.122-6.163 2.32-13.603-.34-18.818 2.906zm24.778 34.837c-2.735.522-4.502 2.129-7.833 1.99-.841-10.377-3.247-21.287-4.258-31.175 2.831-.15 1.064-.064 5.184-.234l1.713.212c4.364 7.547 5.311 20.096 5.162 29.207zm30.59 3.48c-5.045 1.224-12.772 1.544-16.082-.053 4.044-2.203 10.111-2.214 14.795-3.736-6.706-2.884-16.615-.16-24.673-.67-.968-9.942-1.703-20.724-4.055-28.579 4.694-4.992 16.05-6.195 22.501-10.324 1.224-.66.48-.33 2.31-.82a9.27 9.27 0 0 1 8.451 4.683c2.48 3.747 4.79 14.763 6.088 20.617 1.906 8.718-2.448 17.2-9.366 18.882z" class="cls-2"/><path d="M180.195 227.901c2.83 8.856 3.193 18.094 3.757 27.301.18 2.725 4.438 2.746 4.257 0-.628-9.58-.968-19.222-3.906-28.44-.83-2.597-4.939-1.49-4.108 1.139zm13.538.809c3.066-.458 4.684 2.757 4.598 4.492a4.705 4.705 0 0 1-4.496 4.903l-.102.003a4.758 4.758 0 0 1-4.873-4.639l-.001-.118c0-2.608 1.798-4.183 4.874-4.641z" class="cls-2"/><path d="M190.157 233.191c-.149-2.203 1.394-3.449 3.449-3.502 2.544.224 3.501.905 3.427 3.193s-.436 3.193-3.193 3.449c-2.98.34-3.513-.926-3.683-3.14z" class="cls-13"/><path d="M192.882 233.776a1.958 1.958 0 0 1-1.99-1.926c0-1.064.777-1.533 1.873-1.533s1.66.522 1.66 1.586-.447 1.873-1.543 1.873z" class="cls-14"/><path d="M238.054 93.14s-7.312 1.544-7.983 7.983 7.983 1.33 9.314.883m-55.029-8.419s-9.76 1.33-9.76 7.536 11.09 5.769 14.199 3.108" class="cls-7"/><path d="M237.49 90.362h.575c2.735 5.673 5.098 11.708 8.515 16.69-2.31 5.321-17.477 10.132-17.243.479 3.278-1.437 8.94-.288 11.846-2.13-1.681-4.619-4.108-8.514-3.725-15.081" class="cls-2"/><path fill="#1a1715" d="M120.621 92.416s25.386 2.534 37.392 2.193 38.317 1.33 52.229 0 19.478-2.916 29.696-5.322 13.837-4.396 18.627-9.228c2.842-5.588 2.842-7.355 0-11.346-1.863-3.46-7.61-6.44-8.409-6.76-5.748-2.256-10.09-3.884-21.66-3.884s-22.352.564-32.996 2.608c-27.674 6.577-37.53 10.963-47.897 16.285-9.515 3.48-26.982 15.454-26.982 15.454z"/><path d="M156.438 78.803a57.527 57.527 0 0 0-10.378 4.407 75.931 75.931 0 0 0-9.878 6.024l20.224 1.224c5.737.34 8.909.692 13.528.692 4.683.521 4.194.362 4.194.362zm4.662-2.097l16.891 14.827h6.174L167.06 74.694z" class="cls-6"/><path d="M184.835 90.511c2.587 4.758 3.427 9.75 7.11 13.337 1.66 1.618 4.886 3.587 3.29 8.078-.373 1.065-3.109 3.428-4.684 3.896-5.758 1.703-19.159.351-14.635-6.833 4.768.223 11.165 3.097 14.73-.362-2.735-4.375-7.61-13.017-5.81-18.095m38.892 34.018c-.15-.607-.82-1.181-1.66-1.905a16.366 16.366 0 0 1-1.32-1.214c-4.205-4.598-9.697-11.144-11.88-16.274a3.117 3.117 0 0 1-.116-.51c-.192-.916-.458-2.13-1.341-2.513a1.511 1.511 0 0 0-1.48.309l-.213.16v.255c-.202 7.45 5.013 13.741 9.197 18.765l.755.894c.351.436.713.83 1.065 1.213 1.713 1.852 2.852 3.098 1.256 5.908-.926.362-1.98.872-3.087 1.405-3.449 1.67-7.749 3.746-11.474 3.108-1.405-.245-1.724-1.256-2.129-2.917a7.45 7.45 0 0 0-.692-2.128l-.404-.692-.48.638a6.78 6.78 0 0 0 .874 8.728l.127.107h.17a25.681 25.681 0 0 0 2.672.138c8.09 0 13.922-3.757 18.712-6.823l.287-.191-.053-.34a5.322 5.322 0 0 1 .511-2.055 7.11 7.11 0 0 0 .703-4.066zm-31.698 49.355l7.728-4.31h.053l5.769-3.747a.862.862 0 0 1 .351-.15 16.19 16.19 0 0 1 5.258-.33 1.161 1.161 0 0 1 .277.054l2.842.98a1.245 1.245 0 0 1 .33.18l6.727 5.63a1.064 1.064 0 0 0 .564.235l1.437.138a1.064 1.064 0 0 0 1.139-.936l.425-4.78a1 1 0 0 1 .139-.425l3.672-6.386a1.064 1.064 0 0 0-.788-1.544l-5.513-.553h-.213l-8.579.883h-.075l-9.739-.096h-.074a229.123 229.123 0 0 1-25.758.714 91.43 91.43 0 0 0-10.048.777 1.064 1.064 0 0 0-.575.255l-.745.67a1.064 1.064 0 0 0-.117 1.406l1.65 2.128a1.585 1.585 0 0 1 .149.256 57.474 57.474 0 0 0 3.693 7.28l.064.139 1.884 4.896a1.064 1.064 0 0 0 .607.606l4.46 1.618a1.065 1.065 0 0 0 .67 0 60.883 60.883 0 0 0 12.336-5.588z" class="cls-2"/><path d="M196.107 163.826c1.064 1.947.734 2.948-.724 4.417-.074.064-41.606 14.305-52.325 21.16a12.357 12.357 0 0 0-2.182 1.415v.16c-.67 1.703-.723 3.98-1.224 5.769-.979 3.502-2.384 8.025-5.875 9.803-7.174 3.672-17.264-6.663-21.288-11.506a35.765 35.765 0 0 1-2.64-3.651l2.587-.724c.192.32.383.628.596.937a34.54 34.54 0 0 0 13.954 11.761c3.193 1.363 5.035 1.15 7.142-2.012a20.117 20.117 0 0 0 2.512-6.524c.596-2.416.947-4.513 2.736-6.216a53.219 53.219 0 0 1 9.526-6.61c8.28-4.843 41.085-15.753 44.097-16.019.585 0 .628.224 0-.958-.905-.99-2.842-.638-4.96-.18l-1.884.5c-1.575.425-3.108.99-4.662 1.458-3.097.947-23.012 6.918-26.067 8.025q-5.045 1.82-9.973 3.928c-1.681.723-3.672 1.788-5.577 2.437l-.884-2.405c2.193-.82 4.662-2.246 6.62-3.066 2.992-1.277 5.77-3.076 8.825-4.183 5.737-2.065 28.578-9.122 34.57-10.335 2.832-.553 5.578-.245 7.1 2.618z" class="cls-2"/><path fill="#d59e29" d="M193.084 165.028c.617 1.182.575.948 0 .958-3.012.266-35.816 11.176-44.097 16.02a53.219 53.219 0 0 0-9.526 6.609c-1.788 1.703-2.129 3.8-2.736 6.216a20.116 20.116 0 0 1-2.512 6.524c-2.128 3.194-3.98 3.375-7.142 2.012a34.54 34.54 0 0 1-13.954-11.761 17.362 17.362 0 0 1-.596-.937 16.19 16.19 0 0 1-1.947-9.217c.35-4.577 2.97-6.908 6.694-8.707a28.462 28.462 0 0 1 6.153-2.256c8.26-1.852 11.08 3.906 12.847 10.643.244.905 1.01.724 1.84.586a10.538 10.538 0 0 0 1.864-.5c1.905-.65 3.895-1.714 5.577-2.438q4.917-2.129 9.973-3.928c3.055-1.064 22.97-7.078 26.067-8.025 1.554-.468 3.086-1.064 4.662-1.458l1.884-.5c2.107-.48 4.044-.83 4.949.16z"/><path d="M141.057 191.382l.15-.074c-.192.255-.554.51-.15.074zm-1.99-12.592l.883 2.406a10.537 10.537 0 0 1-1.862.5c-.83.139-1.597.32-1.842-.585-1.767-6.716-4.587-12.474-12.847-10.644a28.462 28.462 0 0 0-6.152 2.257c-3.725 1.799-6.386 4.13-6.695 8.706a16.19 16.19 0 0 0 1.948 9.218l-2.586.724c-2.13-3.46-3.481-7.355-2.853-11.496.788-5.14 4.258-7.45 8.675-9.58 4.13-2.01 9.302-4.129 13.954-2.958 5.322 1.32 8.153 6.067 9.58 10.9.063.308-.32.595-.203.553z" class="cls-2"/><path d="M113.17 187.008c3.343 1.99 8.824.436 12.135-.82 1.905-.724 1.064-3.81-.852-3.087a22.439 22.439 0 0 1-5.78 1.437c-1.16.107-2.83.34-3.895-.287a1.597 1.597 0 0 0-1.607 2.757zm8.218-12.177c1.586-.458 3.331-1.309 4.97-1.064a5.056 5.056 0 0 1 2.129.66 2.98 2.98 0 0 1 .66 2.214c-.117 1-1.618 1.245-2.544 1.639-3.47 1.469-7.057 2.746-10.793 2.246-.51-.075-1.49.521-1.884.191s-.255-1.533 0-1.98c3.364-2.575 4.598-3.086 7.462-3.906z" class="cls-2"/><path d="M121.696 175.991c1.437-.457 3.545-1.522 5.056-.968 2.129.798.5 1.469-.5 2.075a18.552 18.552 0 0 1-8.803 2.3 11.242 11.242 0 0 0-2.618 0c0-.075 1.448-.959 1.692-1.118a18.732 18.732 0 0 1 5.173-2.331 1.203 1.203 0 0 0-.628-2.31c-2.682.788-8.227 2.512-8.568 5.748-.128 1.15.192 2.128 1.352 2.458a12.774 12.774 0 0 0 3.044-.095 18.744 18.744 0 0 0 4.151-.405 32.475 32.475 0 0 0 7.387-2.554 2.757 2.757 0 0 0 1.852-2.927c-.309-4.811-6.387-3.13-9.218-2.225-1.469.511-.84 2.82.628 2.352zm111.93-141.945c-.99-3.193-.724-3.257-1.724-6.386s-1.5-3.023-2.49-6.195a4.258 4.258 0 0 0-2.385-2.948c-3.13-1.203-3.055-1.373-6.184-2.576l-6.205-2.448a6.352 6.352 0 0 0-4.109.245c-2.905 1.67-2.714 1.99-5.609 3.672s-3.044 1.426-5.94 3.097a4.747 4.747 0 0 0-2.075 3.406c-.49 3.289-.35 3.31-.84 6.6s-.586 3.267-1.065 6.556a4.258 4.258 0 0 0 .969 3.246c.095.117-.16.532-.054.639 2.278 2.437 2.374 2.341 4.662 4.779s2.661 2.065 4.95 4.491a4.353 4.353 0 0 0 2.99 1.8c.107 0 .203-.533.32-.544 3.342-.255 3.353-.095 6.695-.361s3.374.212 6.716 0a4.97 4.97 0 0 0 3.534-2.044c1.873-2.757 1.799-2.81 3.683-5.556s1.49-3.023 3.374-5.78a4.162 4.162 0 0 0 .787-3.693zm-7.94 6.865c-1.873 2.736-2.033 2.65-3.896 5.322-3.3.255-3.31.34-6.63.596s-3.343.255-6.685.51c0 0 .149-.074.128-.095-2.289-2.437-2.555-2.129-4.843-4.609s-2.129-2.629-4.375-5.055c0 0-.191.117-.191.074.49-3.289.362-3.31.851-6.6s.586-3.267 1.065-6.556v-.255c2.905-1.671 3.129-1.267 6.035-2.938s2.83-1.788 5.651-3.406c2.65 2.012 3.194 1.235 6.301 2.438s3.194 1.117 6.28 2.32c.054 0 .437-.202.447-.16 1 3.194.692 3.268 1.682 6.45s.734 3.247 1.724 6.387a2.603 2.603 0 0 1 .458.16c-1.863 2.841-2.118 2.66-4.002 5.417z" class="cls-2"/><path d="M212.637 16.069a2.47 2.47 0 0 0-.841.287l-11.261 6.535a2.278 2.278 0 0 0-1.065 1.607l-1.905 12.773a2.129 2.129 0 0 0 .437 1.671 1.064 1.064 0 0 0 .138.17l8.877 9.441a2.278 2.278 0 0 0 1.82.692l12.985-1.01a2.235 2.235 0 0 0 1.682-.97l7.312-10.697a2.224 2.224 0 0 0 .288-1.915l-3.864-12.326a2.225 2.225 0 0 0-1.33-1.416l-12.134-4.672a2.31 2.31 0 0 0-1.14-.17z" class="cls-4"/><path d="M213.062 19.985a.766.766 0 0 0-.66.852v.18a4.545 4.545 0 0 0 .15.682 7.257 7.257 0 0 1 .18 1.299.82.82 0 0 1-.202.393v.31a9.239 9.239 0 0 0-5.78 3.352l-.276-.16a.617.617 0 0 1-.436 0 7.45 7.45 0 0 1-1.065-.798 4.375 4.375 0 0 0-.51-.468l-.171-.117a.84.84 0 0 0-.51-.15.692.692 0 0 0-.554.299.777.777 0 0 0 .255 1.064l.16.106a5.692 5.692 0 0 0 .628.31 7.175 7.175 0 0 1 1.128.67.905.905 0 0 1 .181.404l.245.192a9.303 9.303 0 0 0-.969 6.61l-.298.117a.937.937 0 0 1-.277.33 6.77 6.77 0 0 1-1.277.319 5.457 5.457 0 0 0-.692.106h-.191a.766.766 0 0 0-.543.926.777.777 0 0 0 .969.458l.191-.053c.234-.085.405-.203.628-.298a6.174 6.174 0 0 1 1.224-.469.809.809 0 0 1 .426.107l.309-.075a9.398 9.398 0 0 0 4.566 4.865l-.107.33a.777.777 0 0 1 .096.404 7.96 7.96 0 0 1-.564 1.213 5.575 5.575 0 0 0-.34.607.485.485 0 0 1-.086.202.766.766 0 0 0 .394 1 .745.745 0 0 0 .95-.455l.008-.023c0-.064.064-.139.074-.192a5.691 5.691 0 0 0 .16-.68 5.204 5.204 0 0 1 .458-1.342.628.628 0 0 1 .298-.17l.138-.309a9.409 9.409 0 0 0 5.45 0 9.089 9.089 0 0 0 1.203-.468l.18.266a.575.575 0 0 1 .384.191 6.653 6.653 0 0 1 .585 1.171c.096.224.15.426.266.65 0 0 .075.117.107.18a.724.724 0 1 0 1.245-.723l-.106-.181a5.822 5.822 0 0 0-.426-.554 6.738 6.738 0 0 1-.735-1.064.596.596 0 0 1 0-.437s-.095-.202-.138-.276a9.398 9.398 0 0 0 3.747-5.556h.308a.617.617 0 0 1 .394-.181 6.877 6.877 0 0 1 1.288.276c.234.064.415.15.67.203h.182a.745.745 0 0 0 .88-.58l.003-.016a.766.766 0 0 0-.67-.83h-.214a5.163 5.163 0 0 0-.702 0 6.79 6.79 0 0 1-1.31-.118.745.745 0 0 1-.33-.287l-.297-.064a9.367 9.367 0 0 0-2.012-6.386l.245-.256a.585.585 0 0 1 .096-.415 6.727 6.727 0 0 1 1.064-.83 6.2 6.2 0 0 0 .564-.404l.15-.139a.724.724 0 1 0-.936-1.105l-.044.04-.15.14a5.13 5.13 0 0 0-.436.542 7.142 7.142 0 0 1-.904.947.777.777 0 0 1-.437.085l-.255.224a9.452 9.452 0 0 0-6.216-2.427v-.32a.585.585 0 0 1-.266-.35 6.535 6.535 0 0 1 0-1.31v-.691a1.305 1.305 0 0 0 0-.203.756.756 0 0 0-.766-.745h-.011zm-.468 5.663l.075 3.79a.639.639 0 0 1-.586.66.596.596 0 0 1-.383-.097l-3.268-1.958a7.45 7.45 0 0 1 3.428-2.225 4.63 4.63 0 0 1 .734-.17zm1.81-.149a7.568 7.568 0 0 1 4.48 1.746l-2.916 2.426a.65.65 0 0 1-.883-.053.596.596 0 0 1-.16-.362zm-7.004 4.066l3.023 2.31a.639.639 0 0 1 .149.872.67.67 0 0 1-.309.245l-3.544 1.33a7.45 7.45 0 0 1 .681-4.757zm12.72-.99a7.727 7.727 0 0 1 1.064 2.193 7.558 7.558 0 0 1 .34 2.405l-3.725-.766a.639.639 0 0 1-.51-.724.607.607 0 0 1 .17-.351l2.618-2.736zm-6.717 3.268l1.16-.096.788.84-.17 1.15-1 .586-1.065-.426-.352-1.064zm3.949 2.788h.16l3.8.34a7.45 7.45 0 0 1-2.715 4.014l-1.724-3.406a.628.628 0 0 1 .245-.841.692.692 0 0 1 .234-.085zm-6.301.511a.645.645 0 0 1 .65.841l-1.172 3.598a7.557 7.557 0 0 1-3.289-3.523l3.672-.916h.139zm3.267 1.277a.585.585 0 0 1 .298 0 .596.596 0 0 1 .31.245l2.128 3.193-.724.267a7.45 7.45 0 0 1-4.076.106l1.564-3.46a.617.617 0 0 1 .5-.35z" class="cls-9"/><path d="M209.53 45.272a.859.859 0 0 1-.288-.05.896.896 0 0 1-.467-1.166.63.63 0 0 0 .075-.154l.013-.054a5.654 5.654 0 0 1 .348-.62 7.902 7.902 0 0 0 .544-1.17.657.657 0 0 0-.08-.32l-.026-.048.09-.278a9.513 9.513 0 0 1-4.489-4.782l-.253.061-.044-.025a.62.62 0 0 0-.359-.09 6.271 6.271 0 0 0-1.172.455 3.942 3.942 0 0 0-.263.13 3.1 3.1 0 0 1-.378.174l-.202.057a.851.851 0 1 1-.492-1.626l.033-.004h.192a5.003 5.003 0 0 1 .68-.106 6.65 6.65 0 0 0 1.229-.306.823.823 0 0 0 .226-.274l.021-.043.243-.096a9.415 9.415 0 0 1 .952-6.5l-.197-.155-.009-.047a.787.787 0 0 0-.146-.336 7.048 7.048 0 0 0-1.094-.648 5.65 5.65 0 0 1-.637-.313l-.167-.111a.903.903 0 0 1-.292-1.233.821.821 0 0 1 .658-.358.972.972 0 0 1 .585.17l.17.118a4.504 4.504 0 0 1 .53.486 7.335 7.335 0 0 0 1.039.777.499.499 0 0 0 .327-.01l.056-.021.234.135a9.347 9.347 0 0 1 5.686-3.297v-.251l.033-.036a.699.699 0 0 0 .168-.32 7.206 7.206 0 0 0-.177-1.26 4.66 4.66 0 0 1-.151-.692l-.001-.198a.887.887 0 0 1 .565-.924l-.062-.077.223-.028h.016a.885.885 0 0 1 .902.867 1.556 1.556 0 0 1 0 .214v.682a6.467 6.467 0 0 0 0 1.297.457.457 0 0 0 .205.256l.06.037v.268a9.572 9.572 0 0 1 6.093 2.382l.212-.187.054.006a.655.655 0 0 0 .367-.072 7.257 7.257 0 0 0 .865-.914 5.123 5.123 0 0 1 .442-.55l.156-.145a.547.547 0 0 1 .05-.046.849.849 0 0 1 1.095 1.298l-.145.134a6.34 6.34 0 0 1-.582.418 6.67 6.67 0 0 0-1.046.816.465.465 0 0 0-.057.306l.009.06-.213.222a9.473 9.473 0 0 1 1.977 6.278l.246.053.029.045a.608.608 0 0 0 .273.239 7.34 7.34 0 0 0 1.258.106 5.25 5.25 0 0 1 .712 0h.204a.89.89 0 0 1 .795.967l-.005.03a.868.868 0 0 1-1.028.677l-.156.003a3.098 3.098 0 0 1-.442-.124 4.243 4.243 0 0 0-.262-.083 6.773 6.773 0 0 0-1.268-.273.499.499 0 0 0-.291.145l-.037.037h-.262a9.508 9.508 0 0 1-3.684 5.47l.09.184.023.048-.02.05a.48.48 0 0 0 0 .346 6.668 6.668 0 0 0 .715 1.03 5.931 5.931 0 0 1 .432.564l.11.187a.785.785 0 0 1 .08.135.849.849 0 1 1-1.545.704 2.52 2.52 0 0 0-.099-.165 3.425 3.425 0 0 1-.18-.424c-.03-.08-.059-.16-.095-.244a6.522 6.522 0 0 0-.576-1.153.447.447 0 0 0-.288-.134l-.06-.004-.154-.228a9.347 9.347 0 0 1-1.122.43 9.506 9.506 0 0 1-5.417.03l-.12.266-.058.014a.492.492 0 0 0-.226.123 5.084 5.084 0 0 0-.437 1.29 6.168 6.168 0 0 1-.162.694.401.401 0 0 1-.043.1.316.316 0 0 0-.027.058.293.293 0 0 1-.016.065.87.87 0 0 1-.821.58zm-.432-1.336a.648.648 0 0 1-.099.23.642.642 0 0 0 .335.825.62.62 0 0 0 .782-.383.393.393 0 0 1 .057-.157.315.315 0 0 0 .022-.043 5.773 5.773 0 0 0 .158-.676 5.294 5.294 0 0 1 .47-1.376l.021-.03a.748.748 0 0 1 .297-.188l.16-.356.106.031a9.253 9.253 0 0 0 5.377 0 9.146 9.146 0 0 0 1.185-.461l.097-.046.21.308a.693.693 0 0 1 .404.226 6.78 6.78 0 0 1 .61 1.209c.035.083.066.167.096.25a3.225 3.225 0 0 0 .162.385c.001 0 .076.119.109.185a.599.599 0 1 0 1.091-.493.581.581 0 0 0-.06-.103l-.112-.191a5.689 5.689 0 0 0-.413-.535 6.96 6.96 0 0 1-.75-1.085.739.739 0 0 1-.025-.49c-.03-.062-.083-.172-.111-.223l-.057-.098.093-.065a9.26 9.26 0 0 0 3.696-5.483l.023-.096h.359a.74.74 0 0 1 .435-.18 6.909 6.909 0 0 1 1.334.281c.092.026.181.056.27.086a3.178 3.178 0 0 0 .388.113l.155-.002a.631.631 0 0 0 .759-.48.64.64 0 0 0-.562-.698l-.197.001a5.216 5.216 0 0 0-.693 0 6.172 6.172 0 0 1-1.342-.119.877.877 0 0 1-.382-.298l-.353-.076.005-.107a9.222 9.222 0 0 0-1.984-6.302l-.068-.085.28-.292a.703.703 0 0 1 .123-.441 6.806 6.806 0 0 1 1.102-.866 6.094 6.094 0 0 0 .552-.396l.142-.132a.598.598 0 0 0 .074-.848.591.591 0 0 0-.407-.21.582.582 0 0 0-.436.14.466.466 0 0 0-.035.032l-.154.143a5.086 5.086 0 0 0-.42.522 7.22 7.22 0 0 1-.924.97.888.888 0 0 1-.476.12l-.3.262-.082-.074a9.321 9.321 0 0 0-6.133-2.395l-.124-.001v-.376a.712.712 0 0 1-.262-.386 6.61 6.61 0 0 1-.003-1.355v-.678a1.277 1.277 0 0 0 0-.194.635.635 0 0 0-.436-.598l-.158.021a.644.644 0 0 0-.552.713v.196a4.502 4.502 0 0 0 .145.645 7.536 7.536 0 0 1 .186 1.328v.016l-.003.015a.95.95 0 0 1-.2.416v.369l-.105.017a9.095 9.095 0 0 0-5.702 3.307l-.067.084-.322-.185a.744.744 0 0 1-.465-.02 7.447 7.447 0 0 1-1.105-.822 4.29 4.29 0 0 0-.504-.462l-.164-.113a.704.704 0 0 0-.434-.127.57.57 0 0 0-.457.244.653.653 0 0 0 .218.887l.164.108a5.548 5.548 0 0 0 .607.298 7.295 7.295 0 0 1 1.153.684l.025.024a1.045 1.045 0 0 1 .197.412l.292.23-.052.093a9.164 9.164 0 0 0-.956 6.521l.023.105-.354.14a1.068 1.068 0 0 1-.29.33l-.033.017a6.892 6.892 0 0 1-1.301.325 5.436 5.436 0 0 0-.684.105l-.2.003a.646.646 0 0 0-.44.771.654.654 0 0 0 .808.37l.198-.056a2.783 2.783 0 0 0 .337-.158c.088-.046.176-.092.274-.134a6.286 6.286 0 0 1 1.242-.474.91.91 0 0 1 .475.094l.367-.088.04.098a9.264 9.264 0 0 0 4.506 4.8l.097.048-.124.384a.914.914 0 0 1 .086.42l-.008.038a8.11 8.11 0 0 1-.573 1.232 5.602 5.602 0 0 0-.326.579zm5.006-3.347a7.565 7.565 0 0 1-1.882-.238l-.144-.037.061-.136 1.565-3.459a.746.746 0 0 1 .593-.423.71.71 0 0 1 .35.002.729.729 0 0 1 .384.3l2.215 3.322-.873.32a7.583 7.583 0 0 1-2.27.349zm-1.675-.445a7.33 7.33 0 0 0 3.864-.14l.569-.21-2.041-3.06a.472.472 0 0 0-.245-.196.465.465 0 0 0-.226.002l-.02.004a.493.493 0 0 0-.398.28zm-1.827-.382l-.132-.072a7.727 7.727 0 0 1-3.344-3.58l-.061-.137 3.817-.952.158-.004.011.125-.01-.125a.77.77 0 0 1 .779 1.005zm-3.184-3.62a7.472 7.472 0 0 0 3.04 3.256l1.123-3.453a.501.501 0 0 0 0-.317.508.508 0 0 0-.52-.361h-.149zm11.135 3.032l-1.791-3.539a.748.748 0 0 1 .294-1.006.86.86 0 0 1 .17-.075v-.026l.126-.022h.16l3.959.355-.038.144a7.62 7.62 0 0 1-2.76 4.08zm-1.076-4.418v.003l-.105.017a.566.566 0 0 0-.192.07.501.501 0 0 0-.196.674l1.656 3.274a7.365 7.365 0 0 0 2.51-3.711zm-10.854-.264l-.027-.146a7.618 7.618 0 0 1 .692-4.838l.069-.134 3.142 2.401a.76.76 0 0 1 .176 1.043.795.795 0 0 1-.366.29zm.822-4.736a7.377 7.377 0 0 0-.63 4.397l3.404-1.278a.544.544 0 0 0 .25-.198.513.513 0 0 0-.12-.702zm6.746 4.705l-1.176-.47-.388-1.176.704-1.092 1.282-.105.87.928-.187 1.269zm-.975-.658l.953.381.897-.524.152-1.03-.705-.754-1.04.086-.57.888zm8.43-.477l-3.872-.797a.762.762 0 0 1-.61-.865.731.731 0 0 1 .205-.42l2.653-2.76.138-.068.062.087a7.865 7.865 0 0 1 1.082 2.228 7.705 7.705 0 0 1 .346 2.445zm-1.552-4.567l-2.546 2.66a.481.481 0 0 0-.136.28.513.513 0 0 0 .41.585l3.58.736a7.451 7.451 0 0 0-.337-2.215 7.613 7.613 0 0 0-.97-2.046zm-8.066 1.466a.724.724 0 0 1-.397-.12l-3.39-2.032.098-.112a7.566 7.566 0 0 1 3.484-2.262 4.805 4.805 0 0 1 .752-.175l.141-.02.077 3.93a.762.762 0 0 1-.699.788.755.755 0 0 1-.066.003zm-3.402-2.212l3.139 1.881a.459.459 0 0 0 .307.079.513.513 0 0 0 .471-.531l-.071-3.648a4.611 4.611 0 0 0-.574.143 7.32 7.32 0 0 0-3.272 2.076zm6.93 1.93a.773.773 0 0 1-.562-.239.725.725 0 0 1-.194-.438l-.54-3.9.15.008a7.745 7.745 0 0 1 4.555 1.774l.115.097-3.032 2.522a.773.773 0 0 1-.492.177zm-1.008-4.31l.501 3.606a.474.474 0 0 0 .127.293.528.528 0 0 0 .713.043l2.8-2.33a7.495 7.495 0 0 0-4.14-1.612z" class="cls-9"/><path d="M253.243 55.163l-.799 2.927s-4.183-2.512-16.913-4.662-17.966-1.916-27.727-.66-29.153 4.8-42.958 9.633-31.314 11.623-44.704 20.031c-13.677 7.75-26.215 21.905-25.683 22.171s-2.406-.915-2.406-2.511c12.24-11.443 20.426-18.329 28.6-23.417s29.44-14.997 43.203-19.35a243.677 243.677 0 0 1 43.917-10.048c13.56-1.756 16.583-.862 28.025.905s17.445 4.981 17.445 4.981z" class="cls-2"/><path fill="#fff100" d="M166.113 166.678a3.788 3.788 0 0 1-.852-.085c-2.884-.564-5.087-3.268-6.088-5.418a8.76 8.76 0 0 1 .436-6.61 20.223 20.223 0 0 1 6.589-8.515 26.024 26.024 0 0 1 10.314-4.161 83.02 83.02 0 0 1 10.825-1.203h1.33c1.064 0 2.129.064 3.193.117s2.065.117 3.087.117h1.596c1.384 0 2.778.064 4.13.117.99 0 1.97.085 2.949.096h4.172c1.192 0 2.586 0 4.002.128a36.242 36.242 0 0 1 9.366 2.054 23.779 23.779 0 0 1 8.515 4.704c1.778 1.64 7.366 7.451 4.8 13.263a8.515 8.515 0 0 1-4.587 4.534 4.704 4.704 0 0 1-1.49.234 5.322 5.322 0 0 1-3.885-1.597 3.32 3.32 0 0 1-.787-2.714.585.585 0 0 0-.139-.457.543.543 0 0 0-.33-.192c-.096 0-.18.181-.213.234a6.386 6.386 0 0 1-5.864 3.406 6.738 6.738 0 0 1-5.865-3.118.82.82 0 0 0-.596-.181.99.99 0 0 0-.777.276 7.525 7.525 0 0 1-6.535 3.48 7.067 7.067 0 0 1-6.387-3.501.809.809 0 0 0-.106-.16.926.926 0 0 0-.117.415c-.202 2.48-3.066 4.205-5.514 4.205a4.756 4.756 0 0 1-.798-.064c-2.129-.426-4.257-1.959-6.386-4.705l-.075-.074a.915.915 0 0 0-.138.255 6.386 6.386 0 0 1-11.783 0 .564.564 0 0 0-.51-.404.234.234 0 0 0-.128 0 .49.49 0 0 0-.054.287 4.832 4.832 0 0 1-1.437 3.523 5.545 5.545 0 0 1-3.863 1.714z"/><path d="M228.943 148.786c3.097 2.863 6.471 7.695 4.545 12.049a7.45 7.45 0 0 1-3.96 3.96c-1.735.595-5.12-.352-4.757-2.917.223-1.544-1.874-2.736-2.693-1.065-1.767 3.651-7.696 3.758-9.867.203a2.129 2.129 0 0 0-3.193.095c-2.331 3.928-8.888 3.981-11.07 0-.766-1.415-2.128-.734-2.214.682-.17 2.128-3.193 3.533-5.055 3.193-2.342-.458-4.354-2.523-5.759-4.258-.777-.99-1.692-.468-2.043.469-1.629 4.342-8.175 4.332-9.782 0-.564-1.523-2.82-1.501-2.757.319a4.257 4.257 0 0 1-4.462 4.042q-.207-.01-.412-.04c-2.385-.468-4.354-2.746-5.322-4.832a7.876 7.876 0 0 1 .468-5.759 19.042 19.042 0 0 1 6.205-8.004 25.098 25.098 0 0 1 9.899-3.991 83.022 83.022 0 0 1 10.644-1.182c2.693-.149 5.417.256 8.142.192s5.397.149 8.1.202 5.428-.085 8.11.128a35.37 35.37 0 0 1 9.101 2 22.767 22.767 0 0 1 8.132 4.514z" class="cls-5"/><path d="M233.488 160.835c1.926-4.354-1.448-9.186-4.545-12.05a22.767 22.767 0 0 0-8.1-4.48 35.37 35.37 0 0 0-9.1-2.001c-2.683-.213-5.386-.075-8.11-.128s-5.397-.266-8.1-.202-5.45-.34-8.143-.192a83.023 83.023 0 0 0-10.644 1.182 25.098 25.098 0 0 0-9.899 3.991 19.041 19.041 0 0 0-6.205 8.004 7.876 7.876 0 0 0-.468 5.759c.979 2.128 2.948 4.364 5.322 4.832a4.258 4.258 0 0 0 4.874-4.066c-.063-1.82 2.193-1.841 2.757-.32 1.607 4.343 8.153 4.354 9.782 0 .351-.936 1.266-1.458 2.043-.468 1.405 1.788 3.417 3.853 5.759 4.258 1.852.351 4.885-1.065 5.055-3.193.118-1.416 1.448-2.13 2.214-.682 2.182 3.97 8.739 3.917 11.07 0a2.129 2.129 0 0 1 3.193-.095c2.129 3.555 8.1 3.448 9.867-.203.82-1.703 2.916-.51 2.693 1.065-.362 2.565 3.022 3.512 4.757 2.916a7.45 7.45 0 0 0 3.928-3.927zm1.83-9.9a13.592 13.592 0 0 1 1.682 8.399c-.468 3.895-3.63 7.876-7.535 8.664a7.036 7.036 0 0 1-7.142-3.012c-3.279 2.671-8.515 2.075-11.709-.81a9.846 9.846 0 0 1-6.62 2.79 9.58 9.58 0 0 1-6.695-2.13 6.833 6.833 0 0 1-5.141 2.726c-3.033.266-5.673-1.746-7.727-3.864a8.015 8.015 0 0 1-6.45 3.395 7.621 7.621 0 0 1-5.674-2.054 7.163 7.163 0 0 1-5.811 3.012c-3.906.117-6.95-2.82-8.515-6.141 0-.075.17-.224.149-.298s0-.117-.064-.17c-1.299-3.109-.617-5.982.894-8.888 2.044-3.938 4.694-7.45 8.739-9.367a35.848 35.848 0 0 1 8.813-3.342 69.632 69.632 0 0 1 9.409-1.256c3.193-.16 6.386.681 9.473.65 2.884 0 5.843-.841 8.823-.841s5.865.82 8.782 1.138a38.913 38.913 0 0 1 8.61 1.597 27.461 27.461 0 0 1 7.621 3.725 21.958 21.958 0 0 1 6.089 6.078z" class="cls-2"/></svg>