<svg id="Layer_1" data-name="Layer 1" xmlns="http://www.w3.org/2000/svg" viewBox="0 0 758 887.95"><defs><style>.cls-1{fill:#3dff47;}.cls-2{fill:#636363;}</style></defs><path class="cls-1" d="M741.11,421.37c0,177.29-150.38,410.92-327.88,497.73-23.56,11.52-42.24,12.6-67.66-.51C191,838.84,16.87,596.3,16.87,421.37,16.87,229.45,179,73.86,379,73.86S741.11,229.45,741.11,421.37Z" transform="translate(-5 -43.05)"/><path d="M384.62,931c-13.55,0-27-3.81-41.76-11.42-39.42-20.34-80-50.48-120.56-89.58-38.72-37.33-76.07-81.88-108-128.85-32.79-48.24-60-99.22-78.55-147.44C15.35,500.81,5,451.59,5,407.37A350.19,350.19,0,0,1,34.89,265.3a362.56,362.56,0,0,1,81.37-115.82A378.81,378.81,0,0,1,236.7,71.59a394.42,394.42,0,0,1,294.6,0,378.71,378.71,0,0,1,120.45,77.94A362.48,362.48,0,0,1,733.11,265.3,350,350,0,0,1,763,407.37c0,45.25-9.16,94.35-27.22,145.93-17.3,49.42-41.83,98.57-72.91,146.1A714.23,714.23,0,0,1,556,827.9c-41.75,39.42-85.58,70.49-130.29,92.35C411,927.41,397.77,931,384.62,931ZM384,76.73c-190.38,0-345.26,148.33-345.26,330.64,0,77.91,37.71,178.08,103.47,274.82,62.9,92.5,143.67,170,216.12,207.4,19.36,10,32.61,10.07,52.5.35,169.63-83,318.43-308.46,318.43-482.58,0-182.3-154.88-330.63-345.26-330.63Z" transform="translate(-5 -43.05)"/><path d="M696.65,416.43s-37.2,219.92-172,243.18S399,538.33,469.56,490.44,696.65,416.43,696.65,416.43Z" transform="translate(-5 -43.05)"/><path class="cls-2" d="M491.62,645.05a75.55,75.55,0,0,0,8.73-1.27c2.89-.55,5.75-1.2,8.57-2a134.28,134.28,0,0,0,16.59-5.61,158.7,158.7,0,0,0,15.78-7.44,168.83,168.83,0,0,0,14.82-9.08,187.67,187.67,0,0,0,26.65-22.24c1-1,2-2.09,3-3.13l1.51-1.56.75-.78.73-.81,2.9-3.24c.48-.55,1-1.07,1.44-1.63l1.42-1.67,2.79-3.34c.93-1.11,1.79-2.27,2.7-3.41l2.67-3.44,2.57-3.55,5.17-7.08,1.3-1.77c.42-.6.82-1.21,1.23-1.81l2.46-3.64,5-7.24,4.7-7.41,2.36-3.7c.4-.61.78-1.23,1.15-1.86l1.12-1.89,4.49-7.54c.77-1.24,1.46-2.54,2.17-3.81l2.14-3.84,2.15-3.83c.73-1.27,1.37-2.59,2.06-3.88l4.08-7.78,3.88-7.89c.67-1.31,1.28-2.64,1.89-4l1.85-4c1.27-2.65,2.4-5.35,3.59-8a316,316,0,0,0,12.44-33c-1.9,11.69-5.3,23.1-9.1,34.33-1,2.8-1.93,5.61-3,8.37l-1.6,4.15c-.54,1.39-1.07,2.78-1.66,4.14l-3.48,8.2c-1.22,2.71-2.48,5.4-3.73,8.09-.65,1.34-1.24,2.71-1.92,4l-2,4-2,4c-.68,1.32-1.33,2.66-2.07,4l-4.33,7.8-1.09,1.94c-.36.66-.73,1.3-1.12,1.93L631,545.59l-4.65,7.62-4.92,7.38-2.48,3.71c-.41.61-.82,1.24-1.25,1.85l-1.3,1.81-5.24,7.23-2.64,3.61-2.77,3.53c-.94,1.17-1.84,2.37-2.81,3.51L600,589.27,598.51,591c-.49.57-1,1.11-1.51,1.66L594,596l-.77.83-.79.8-1.58,1.6c-1.06,1.06-2.11,2.13-3.2,3.17l-3.3,3.06c-.55.51-1.09,1-1.65,1.53L581,608.41c-1.14,1-2.27,2-3.42,2.93l-3.53,2.8c-.59.47-1.17,1-1.77,1.39l-1.81,1.34c-1.22.88-2.4,1.81-3.65,2.64L563.09,622c-1.24.84-2.53,1.6-3.8,2.41l-1.91,1.19-2,1.12-2,1.12-1,.56-1,.52-4,2.1-4,2a144.37,144.37,0,0,1-16.7,6.58,125,125,0,0,1-17.38,4.22A83.59,83.59,0,0,1,491.62,645.05Z" transform="translate(-5 -43.05)"/><path d="M417.46,510a7,7,0,0,0-.08-.74v-2a25.4,25.4,0,0,1,.15-2.62,36.72,36.72,0,0,1,.87-5.1,45.45,45.45,0,0,1,3.57-9.58,61.68,61.68,0,0,1,12.1-16.14,94,94,0,0,1,15.84-12.25l2.12-1.31c.71-.44,1.44-.83,2.16-1.25l2.17-1.23,2.2-1.16c2.93-1.55,5.83-3.13,8.81-4.58q17.76-8.88,36.26-16.07c6.15-2.42,12.37-4.66,18.61-6.81s12.55-4.16,18.91-5.93c-6.32,1.91-12.56,4.06-18.77,6.32S510,434.15,504,436.7q-18.3,7.56-35.81,16.79c-2.93,1.51-5.79,3.14-8.67,4.74l-2.15,1.2-2.11,1.26c-.7.43-1.42.82-2.1,1.27L451,463.29a92.37,92.37,0,0,0-15.23,12.3,58.76,58.76,0,0,0-11.24,15.65,42.14,42.14,0,0,0-3.14,9,35.08,35.08,0,0,0-.7,4.67c-.06.78-.09,1.56-.08,2.33V509a1.15,1.15,0,0,0,.06.48Z" transform="translate(-5 -43.05)"/><path d="M61.35,411.43s37.2,219.92,172,243.18,125.7-121.28,55.09-169.17S61.35,411.43,61.35,411.43Z" transform="translate(-5 -43.05)"/><path class="cls-2" d="M266.39,645.05a83.72,83.72,0,0,1-17.74-1.29,126.18,126.18,0,0,1-17.37-4.17,144.94,144.94,0,0,1-16.71-6.53l-4-1.95-4-2.1-1-.52-1-.56-2-1.12-1.95-1.12-1.91-1.19c-1.26-.81-2.56-1.57-3.8-2.41l-3.73-2.53c-1.25-.83-2.43-1.76-3.64-2.64l-1.82-1.34c-.6-.44-1.18-.92-1.77-1.39l-3.53-2.8c-1.15-1-2.28-2-3.42-2.93L175.3,607c-.56-.5-1.1-1-1.66-1.53l-3.3-3.06c-1.08-1-2.13-2.11-3.19-3.17l-1.59-1.6-.79-.8L164,596l-3-3.31L159.44,591,158,589.32l-2.87-3.48c-1-1.14-1.86-2.34-2.8-3.51l-2.78-3.53-2.63-3.61L141.67,568l-1.31-1.81c-.43-.61-.83-1.24-1.25-1.85l-2.49-3.72-4.92-7.44-4.59-7.56-2.31-3.82c-.4-.63-.77-1.27-1.12-1.93l-1.09-1.94-4.34-7.8c-.74-1.29-1.38-2.63-2.07-4l-2-4-2-4c-.68-1.32-1.27-2.69-1.91-4-1.26-2.69-2.51-5.38-3.74-8.09l-3.48-8.2c-.59-1.36-1.12-2.75-1.65-4.14l-1.69-4.13c-1.09-2.76-2-5.57-3-8.37-3.8-11.23-7.19-22.64-9.1-34.33a316,316,0,0,0,12.45,33c1.18,2.69,2.31,5.39,3.59,8l1.84,4c.61,1.33,1.23,2.66,1.89,4l3.89,7.89,4.08,7.78c.68,1.29,1.32,2.61,2,3.88l2.15,3.83,2.14,3.84c.72,1.27,1.4,2.57,2.17,3.81l4.5,7.54,1.12,1.89q.54.95,1.14,1.86l2.37,3.7,4.7,7.41,4.94,7.24,2.53,3.63c.41.6.81,1.21,1.24,1.81l1.29,1.77,5.17,7.08,2.57,3.55,2.68,3.44c.9,1.14,1.76,2.3,2.69,3.41l2.8,3.34,1.39,1.67c.46.56,1,1.08,1.44,1.63l2.9,3.24.72.81.75.78,1.51,1.56c1,1,2,2.11,3,3.13a187,187,0,0,0,26.64,22.24,169.26,169.26,0,0,0,14.84,9.09,163.31,163.31,0,0,0,15.78,7.44,134.28,134.28,0,0,0,16.59,5.61c2.82.79,5.68,1.44,8.57,2A75.19,75.19,0,0,0,266.39,645.05Z" transform="translate(-5 -43.05)"/><path d="M337.21,509.4a3.93,3.93,0,0,0,.06-.48v-1.71a20.26,20.26,0,0,0-.09-2.33,33.52,33.52,0,0,0-.7-4.67,42.14,42.14,0,0,0-3.14-9,58.58,58.58,0,0,0-11.14-15.62A92.08,92.08,0,0,0,307,463.29L305,462c-.69-.45-1.4-.84-2.1-1.27l-2.11-1.26-2.16-1.2c-2.88-1.6-5.74-3.23-8.67-4.74q-17.48-9.21-35.8-16.79c-6.09-2.55-12.25-4.92-18.44-7.2s-12.44-4.41-18.76-6.32c6.36,1.77,12.65,3.8,18.9,5.93s12.46,4.39,18.61,6.81Q272.9,443.1,290.68,452c3,1.45,5.89,3,8.82,4.58l2.19,1.16,2.17,1.23c.72.42,1.45.81,2.16,1.25l2.13,1.31A93.52,93.52,0,0,1,324,473.77a61.79,61.79,0,0,1,12.13,16.14,44.18,44.18,0,0,1,3.57,9.58,38.29,38.29,0,0,1,.88,5.1c.09.87.14,1.74.15,2.62v2a2.53,2.53,0,0,1-.08.74Z" transform="translate(-5 -43.05)"/></svg>