<?xml version="1.0" encoding="UTF-8" standalone="no"?>
<svg
   xmlns:dc="http://purl.org/dc/elements/1.1/"
   xmlns:cc="http://creativecommons.org/ns#"
   xmlns:rdf="http://www.w3.org/1999/02/22-rdf-syntax-ns#"
   xmlns:svg="http://www.w3.org/2000/svg"
   xmlns="http://www.w3.org/2000/svg"
   height="212.48346"
   width="199.685"
   xml:space="preserve"
   enable-background="new 0 0 320 102.667"
   viewBox="0 0 199.685 212.48346"
   y="0px"
   x="0px"
   id="Layer_1"
   version="1.1"><metadata
     id="metadata71"><rdf:RDF><cc:Work
         rdf:about=""><dc:format>image/svg+xml</dc:format><dc:type
           rdf:resource="http://purl.org/dc/dcmitype/StillImage" /><dc:title></dc:title></cc:Work></rdf:RDF></metadata><defs
     id="defs69" /><g
     transform="translate(-1.011,111.59346)"
     id="g14"><path
       d="m 17.937,87.138 c -4.23,0 -8.138,-1.708 -10.09,-3.336 V 100.89 H 1.011 V 45.881 h 5.777 l 0.57,4.069 c 1.872,-2.605 6.266,-4.883 11.068,-4.883 11.879,0 14.971,9.603 14.971,20.995 0,12.694 -4.231,21.076 -15.46,21.076 z M 7.847,78.431 c 2.035,1.627 5.289,3.173 9.113,3.173 7.893,0 9.602,-6.183 9.602,-15.622 0,-9.44 -1.464,-15.381 -9.113,-15.381 -4.069,0 -7.322,1.954 -9.602,3.988 z"
       id="path2" /><path
       d="m 62.365,51.578 c -4.556,0.895 -9.195,2.441 -12.613,4.232 v 30.432 h -6.835 v -40.36 h 5.615 l 0.731,4.719 c 2.442,-2.44 6.918,-4.8 12.207,-5.289 z"
       id="path4" /><path
       d="m 73.106,69.073 c 0.408,8.544 2.523,12.613 10.742,12.613 4.312,0 8.788,-1.059 11.88,-2.278 l 1.058,5.206 c -3.336,1.383 -8.627,2.443 -13.02,2.443 -14.566,0 -17.496,-9.929 -17.496,-21.239 0,-11.635 3.824,-20.75 16.194,-20.75 10.985,0 15.542,7.731 15.542,17.415 v 6.591 h -24.9 z m 0,-5.369 h 18.309 v -1.466 c 0,-7.487 -2.359,-12.043 -9.033,-12.043 -7.566,0 -9.194,5.452 -9.276,13.509 z"
       id="path6" /><path
       d="m 117.372,87.058 c -4.069,0 -9.277,-0.896 -12.776,-2.687 l 1.302,-5.369 c 3.092,1.464 7.568,2.523 11.149,2.523 5.369,0 8.219,-1.466 8.219,-6.022 0,-4.315 -2.93,-5.615 -8.382,-6.918 -8.869,-2.115 -12.205,-5.208 -12.205,-12.124 0,-7.569 4.15,-11.393 13.588,-11.393 3.905,0 8.057,0.733 10.904,2.033 l -1.139,5.454 c -2.522,-1.059 -6.429,-1.954 -9.602,-1.954 -5.127,0 -7.08,1.383 -7.08,5.453 0,4.231 1.953,5.045 7.73,6.59 7.893,2.116 12.857,4.638 12.857,12.37 0,8.461 -6.185,12.044 -14.565,12.044 z"
       id="path8" /><path
       d="m 161.069,85.836 c -1.709,0.65 -5.697,1.221 -8.299,1.221 -6.917,0 -9.846,-3.826 -9.846,-10.092 V 51.416 h -6.998 v -5.535 h 6.998 v -9.846 l 6.835,-0.976 v 10.822 h 11.473 l -0.569,5.535 h -10.904 v 25.226 c 0,3.742 0.895,4.883 4.638,4.883 1.628,0 3.987,-0.327 6.103,-0.816 z"
       id="path10" /><path
       d="m 183.689,87.058 c -11.718,0 -17.008,-8.788 -17.008,-20.995 0,-12.206 5.29,-20.995 17.008,-20.995 11.717,0 17.007,8.788 17.007,20.995 0,12.206 -5.29,20.995 -17.007,20.995 z m 0,-36.457 c -8.463,0 -10.173,6.916 -10.173,15.462 0,8.544 1.71,15.462 10.173,15.462 8.462,0 10.172,-6.918 10.172,-15.462 0,-8.546 -1.71,-15.462 -10.172,-15.462 z"
       id="path12" /></g><g
     transform="matrix(1.4778689,0,0,1.4778689,-280.29691,-2.872528)"
     id="g62"><g
       id="g46"><circle
         transform="matrix(0.7071,-0.7071,0.7071,0.7071,75.2889,194.9389)"
         cx="272.97"
         cy="6.5830002"
         id="ellipse16"
         r="4.6329999"
         style="fill:#5b87da" /><circle
         transform="matrix(0.7071,-0.7071,0.7071,0.7071,70.0236,207.6766)"
         cx="285.70001"
         cy="19.312"
         id="ellipse18"
         r="5.1469998"
         style="fill:#5b87da" /><ellipse
         transform="matrix(0.7071,-0.7071,0.7071,0.7071,64.7566,220.4137)"
         cx="298.42899"
         cy="32.042"
         rx="5.6609998"
         ry="5.6599998"
         id="ellipse20"
         style="fill:#5b87da" /><ellipse
         transform="matrix(0.7071,-0.7071,0.7071,0.7071,59.4777,233.1359)"
         cx="311.159"
         cy="44.771999"
         rx="6.1750002"
         ry="6.1739998"
         id="ellipse22"
         style="fill:#5b87da" /><circle
         transform="matrix(0.7071,-0.7071,0.7071,0.7071,67.8322,176.9367)"
         cx="247.511"
         cy="6.5830002"
         id="ellipse24"
         r="4.119"
         style="fill:#1edcff" /><circle
         transform="matrix(0.7071,-0.7071,0.7071,0.7071,62.5669,189.6742)"
         cx="260.23999"
         cy="19.312"
         id="ellipse26"
         r="4.6329999"
         style="fill:#1edcff" /><circle
         transform="matrix(0.7071,-0.7071,0.7071,0.7071,57.2882,202.3964)"
         cx="272.97"
         cy="32.042"
         id="ellipse28"
         r="5.1469998"
         style="fill:#1edcff" /><circle
         transform="matrix(0.7071,-0.7071,0.7071,0.7071,52.0167,215.1274)"
         cx="285.70001"
         cy="44.771999"
         id="ellipse30"
         r="5.6609998"
         style="fill:#1edcff" /><ellipse
         transform="matrix(0.7071,-0.7071,0.7071,0.7071,46.7535,227.8705)"
         cx="298.42899"
         cy="57.500999"
         rx="6.1750002"
         ry="6.1739998"
         id="ellipse32"
         style="fill:#1edcff" /><circle
         transform="matrix(0.7071,-0.7071,0.7071,0.7071,60.3907,158.9503)"
         cx="222.052"
         cy="6.5819998"
         id="ellipse34"
         r="3.605" /><circle
         transform="matrix(0.7071,-0.7071,0.7071,0.7071,55.1036,171.664)"
         cx="234.782"
         cy="19.312"
         id="ellipse36"
         r="4.119" /><circle
         transform="matrix(0.7071,-0.7071,0.7071,0.7071,49.8433,184.4092)"
         cx="247.511"
         cy="32.042"
         id="ellipse38"
         r="4.6329999" /><circle
         transform="matrix(0.7071,-0.7071,0.7071,0.7071,44.5704,197.1387)"
         cx="260.241"
         cy="44.771"
         id="ellipse40"
         r="5.1469998" /><ellipse
         transform="matrix(0.7071,-0.7071,0.7071,0.7071,39.2976,209.8698)"
         cx="272.97"
         cy="57.500999"
         rx="5.6609998"
         ry="5.6599998"
         id="ellipse42" /><ellipse
         transform="matrix(0.7071,-0.7071,0.7071,0.7071,34.0145,222.5829)"
         cx="285.70001"
         cy="70.231003"
         rx="6.1750002"
         ry="6.1739998"
         id="ellipse44" /></g><g
       id="g60"><circle
         transform="matrix(0.7071,-0.7071,0.7071,0.7071,31.8295,191.8493)"
         cx="247.51199"
         cy="57.500999"
         id="ellipse48"
         r="4.119"
         style="fill:#5b87da" /><circle
         transform="matrix(0.7071,-0.7071,0.7071,0.7071,19.101,186.5767)"
         cx="234.783"
         cy="70.230003"
         id="ellipse50"
         r="4.119"
         style="fill:#5b87da" /><circle
         transform="matrix(0.7071,-0.7071,0.7071,0.7071,6.3767,181.3135)"
         cx="222.05299"
         cy="82.959"
         id="ellipse52"
         r="4.119"
         style="fill:#5b87da" /><circle
         transform="matrix(0.7071,-0.7071,0.7071,0.7071,13.8286,199.3076)"
         cx="247.51199"
         cy="82.959999"
         id="ellipse54"
         r="4.119"
         style="fill:#5b87da" /><circle
         transform="matrix(0.7071,-0.7071,0.7071,0.7071,21.2889,217.318)"
         cx="272.97"
         cy="82.960999"
         id="ellipse56"
         r="4.119"
         style="fill:#5b87da" /><circle
         transform="matrix(0.7071,-0.7071,0.7071,0.7071,26.5569,204.578)"
         cx="260.241"
         cy="70.230003"
         id="ellipse58"
         r="4.119"
         style="fill:#5b87da" /></g></g></svg>