<?xml version="1.0" encoding="UTF-8"?>
<!DOCTYPE svg PUBLIC "-//W3C//DTD SVG 1.1//EN" "http://www.w3.org/Graphics/SVG/1.1/DTD/svg11.dtd">
<!-- Creator: CorelDRAW 2020 (64-Bit) -->
<svg xmlns="http://www.w3.org/2000/svg" xml:space="preserve" width="96.2415mm" height="24.555mm" version="1.1" style="shape-rendering:geometricPrecision; text-rendering:geometricPrecision; image-rendering:optimizeQuality; fill-rule:evenodd; clip-rule:evenodd"
viewBox="0 0 607.15 154.91"
 xmlns:xlink="http://www.w3.org/1999/xlink"
 xmlns:xodm="http://www.corel.com/coreldraw/odm/2003">
 <defs>
  <style type="text/css">
   <![CDATA[
    .fil0 {fill:#70130E;fill-rule:nonzero}
    .fil3 {fill:url(#id0);fill-rule:nonzero}
    .fil2 {fill:url(#id1);fill-rule:nonzero}
    .fil1 {fill:url(#id2);fill-rule:nonzero}
   ]]>
  </style>
  <linearGradient id="id0" gradientUnits="userSpaceOnUse" x1="154.39" y1="22.78" x2="180.48" y2="68.8">
   <stop offset="0" style="stop-opacity:1; stop-color:#FFEC87"/>
   <stop offset="1" style="stop-opacity:1; stop-color:#EA8C00"/>
  </linearGradient>
  <linearGradient id="id1" gradientUnits="userSpaceOnUse" xlink:href="#id0" x1="175.15" y1="-5.75" x2="204.57" y2="42.63">
  </linearGradient>
  <linearGradient id="id2" gradientUnits="userSpaceOnUse" x1="191.54" y1="59.09" x2="191.54" y2="142.61">
   <stop offset="0" style="stop-opacity:1; stop-color:#CC635E"/>
   <stop offset="1" style="stop-opacity:1; stop-color:#70130E"/>
  </linearGradient>
 </defs>
 <g id="Layer_x0020_1">
  <metadata id="CorelCorpID_0Corel-Layer"/>
  <g id="_2365130640656">
   <path class="fil0" d="M548.38 45.22l58.78 0 0 109.69 -23.51 0 0 -86.19 -35.27 0c-7.57,0 -14.04,3.08 -19.39,9.17 -5.35,6.12 -8.02,13.5 -8.02,22.17 0,8.66 2.67,16.07 8.02,22.17 5.35,6.12 11.82,9.17 19.39,9.17l27.44 0 0 23.51 -27.44 0c-14.04,0 -26.05,-5.35 -35.99,-16.07 -9.95,-10.7 -14.92,-23.61 -14.92,-38.77 0,-15.14 4.97,-28.08 14.92,-38.77 9.95,-10.7 21.95,-16.07 35.99,-16.07z"/>
   <polygon class="fil0" points="462.22,45.22 485.72,45.22 485.72,154.91 462.22,154.91 "/>
   <path class="fil0" d="M348.62 78.54c0,-9.2 3.26,-17.06 9.76,-23.56 6.5,-6.5 14.33,-9.76 23.53,-9.76l68.56 0 0 23.51 -68.56 0c-2.7,0 -5.03,0.96 -6.93,2.86 -1.9,1.93 -2.86,4.22 -2.86,6.95 0,2.7 0.96,5.03 2.86,6.93 1.9,1.9 4.23,2.86 6.93,2.86l35.27 0c9.17,0 17.03,3.24 23.53,9.73 6.5,6.52 9.76,14.36 9.76,23.56 0,9.2 -3.26,17.03 -9.76,23.53 -6.5,6.5 -14.36,9.76 -23.53,9.76l-68.56 0 0 -23.51 68.56 0c2.7,0 5,-0.96 6.93,-2.86 1.9,-1.9 2.86,-4.22 2.86,-6.93 0,-2.73 -0.96,-5.03 -2.86,-6.93 -1.92,-1.93 -4.22,-2.86 -6.93,-2.86l-35.27 0c-9.2,0 -17.03,-3.26 -23.53,-9.76 -6.5,-6.5 -9.76,-14.36 -9.76,-23.53z"/>
   <path class="fil0" d="M313.38 127.5c0,-3.26 -1.15,-6.02 -3.45,-8.32 -2.3,-2.3 -5.08,-3.45 -8.32,-3.45l-66.58 0 0 -23.51 66.58 0c3.24,0 6.02,-1.15 8.32,-3.45 2.3,-2.3 3.45,-5.05 3.45,-8.29 0,-3.24 -1.15,-6.02 -3.45,-8.32 -2.3,-2.3 -5.08,-3.45 -8.32,-3.45l-66.58 0 0 -23.51 66.58 0c9.73,0 18.02,3.45 24.92,10.35 6.9,6.9 10.35,15.19 10.35,24.92 0,9.04 -3.02,16.87 -9.01,23.5 5.99,6.63 9.01,14.47 9.01,23.51l0 27.41 -23.5 0 0 -27.41z"/>
   <path class="fil1" d="M156.67 110.73c-10.16,-1.95 -19.17,-6.55 -27.01,-13.88 -10.72,-9.92 -16.07,-21.9 -16.07,-35.97l0 -15.67 23.51 0 0 15.67c0,7.59 3.05,14.04 9.17,19.39 6.1,5.37 13.5,8.05 22.17,8.05 8.66,0 16.04,-2.67 22.17,-8.05 6.1,-5.35 9.17,-11.79 9.17,-19.39l0 -15.67 23.51 0 0 15.67c0,14.07 -5.38,26.05 -16.07,35.97 -7.83,7.33 -16.85,11.93 -27.03,13.88l0 44.18 -23.51 0 0 -44.18z"/>
   <path class="fil0" d="M66.58 115.73l-43.08 0 0 39.18 -23.51 0 0 -62.68 66.58 0c3.24,0 6.02,-1.15 8.32,-3.45 2.3,-2.3 3.45,-5.05 3.45,-8.29 0,-3.24 -1.15,-6.02 -3.45,-8.32 -2.3,-2.3 -5.08,-3.45 -8.32,-3.45l-66.58 0 0 -23.51 66.58 0c9.73,0 18.02,3.45 24.92,10.35 6.9,6.9 10.35,15.19 10.35,24.92 0,9.71 -3.45,18.02 -10.35,24.9 -6.9,6.9 -15.19,10.35 -24.92,10.35z"/>
   <g>
    <path class="fil2" d="M182.89 77.58c0,0 6.97,-8.52 -2.64,-22.04 -9.61,-13.52 -30.44,-34.26 -11.45,-55.54 0,0 -2.4,12.41 18.52,35.74 20.91,23.33 -4.43,41.84 -4.43,41.84z"/>
    <path class="fil3" d="M143.7 54.2c0,0 3.54,8.67 8.29,13.11 2.73,2.55 9.04,3.28 3.82,-4.77 -5.23,-8.06 -13.71,-21.39 -1.27,-35.28 0,0 2.12,11.94 17.94,31.67 15.83,19.72 -2.86,27.47 -14.11,23.66 -11.01,-3.73 -16.03,-14.63 -14.66,-28.38z"/>
   </g>
  </g>
  <polygon class="fil0" points="575.84,112.62 575.84,124.91 564.14,124.91 564.14,112.62 "/>
  <polygon class="fil0" points="575.84,95.63 575.84,107.92 564.14,107.92 564.14,95.63 "/>
  <polygon class="fil0" points="575.84,78.7 575.84,90.99 564.14,90.99 564.14,78.7 "/>
 </g>
</svg>
