<svg id="Layer_1" data-name="Layer 1" xmlns="http://www.w3.org/2000/svg" xmlns:xlink="http://www.w3.org/1999/xlink" viewBox="0 0 150 150"><defs><linearGradient id="linear-gradient" x1="55.37" y1="5" x2="55.37" y2="105.73" gradientUnits="userSpaceOnUse"><stop offset="0" stop-color="#2980c3"/><stop offset="0.5" stop-color="#0d72b9"/><stop offset="1" stop-color="#0a5287"/></linearGradient><linearGradient id="linear-gradient-2" x1="94.63" y1="145" x2="94.63" y2="44.27" gradientUnits="userSpaceOnUse"><stop offset="0" stop-color="#2980c3"/><stop offset="0.7" stop-color="#0d72b9"/><stop offset="1" stop-color="#0a5287"/></linearGradient></defs><title>Artboard 1 copy 4</title><path d="M104.72,45.28a50.37,50.37,0,1,0-59.43,59.43,50.41,50.41,0,0,1-1-10.08V83.08a29.83,29.83,0,1,1,41-27.72V85.24H64.76v9.39a29.69,29.69,0,0,0,2.16,11.1h38.81V55.37A50.41,50.41,0,0,0,104.72,45.28Z" style="fill:url(#linear-gradient)"/><path d="M104.72,45.28a50.41,50.41,0,0,1,1,10.08V66.92a29.83,29.83,0,1,1-41,27.72V64.76H85.24V55.37a29.69,29.69,0,0,0-2.16-11.1H44.27V94.63a50.37,50.37,0,1,0,60.45-49.35Z" style="fill:url(#linear-gradient-2)"/></svg>
